<svg xmlns="http://www.w3.org/2000/svg" width="720" height="420"><path d="M372,180L440,174L400,120Z" fill="#9adcd5" stroke="#9adcd5" stroke-width="1.51"/><path d="M440,174L466,152L400,120Z" fill="#95d0ca" stroke="#95d0ca" stroke-width="1.51"/><path d="M372,180L436,236L440,174Z" fill="#93d9d1" stroke="#93d9d1" stroke-width="1.51"/><path d="M440,174L512,232L466,152Z" fill="#89c4be" stroke="#89c4be" stroke-width="1.51"/><path d="M400,120L362,83L372,180Z" fill="#a3e4dd" stroke="#a3e4dd" stroke-width="1.51"/><path d="M360,60L362,83L413,28Z" fill="#abe1db" stroke="#abe1db" stroke-width="1.51"/><path d="M466,152L469,99L400,120Z" fill="#96cbc6" stroke="#96cbc6" stroke-width="1.51"/><path d="M372,180L383,246L436,236Z" fill="#92dbd3" stroke="#92dbd3" stroke-width="1.51"/><path d="M413,28L362,83L400,120Z" fill="#a6ddd7" stroke="#a6ddd7" stroke-width="1.51"/><path d="M281,106L372,180L362,83Z" fill="#a9ebe2" stroke="#a9ebe2" stroke-width="1.51"/><path d="M281,106L293,190L372,180Z" fill="#a8ebe3" stroke="#a8ebe3" stroke-width="1.51"/><path d="M372,180L293,190L383,246Z" fill="#a0efe5" stroke="#a0efe5" stroke-width="1.51"/><path d="M436,236L512,232L440,174Z" fill="#87c6c0" stroke="#87c6c0" stroke-width="1.51"/><path d="M466,152L542,178L469,99Z" fill="#89bbb7" stroke="#89bbb7" stroke-width="1.51"/><path d="M451,330L512,232L436,236Z" fill="#76a9a5" stroke="#76a9a5" stroke-width="1.51"/><path d="M469,99L413,28L400,120Z" fill="#9ed0cb" stroke="#9ed0cb" stroke-width="1.51"/><path d="M283,62L281,106L362,83Z" fill="#b0e8e2" stroke="#b0e8e2" stroke-width="1.51"/><path d="M283,62L362,83L360,60Z" fill="#b0e8e1" stroke="#b0e8e1" stroke-width="1.51"/><path d="M512,232L542,178L466,152Z" fill="#82b8b3" stroke="#82b8b3" stroke-width="1.51"/><path d="M469,99L451,14L413,28Z" fill="#9dc8c5" stroke="#9dc8c5" stroke-width="1.51"/><path d="M383,246L373,294L436,236Z" fill="#86c6c0" stroke="#86c6c0" stroke-width="1.51"/><path d="M313,275L373,294L383,246Z" fill="#8bccc6" stroke="#8bccc6" stroke-width="1.51"/><path d="M293,190L313,275L383,246Z" fill="#98dfd6" stroke="#98dfd6" stroke-width="1.51"/><path d="M250,141L261,190L293,190Z" fill="#a9ebe2" stroke="#a9ebe2" stroke-width="1.51"/><path d="M282,259L313,275L293,190Z" fill="#99dbd4" stroke="#99dbd4" stroke-width="1.51"/><path d="M516,48L451,14L469,99Z" fill="#95bcb9" stroke="#95bcb9" stroke-width="1.51"/><path d="M322,-14L283,62L360,60Z" fill="#afe3df" stroke="#afe3df" stroke-width="1.51"/><path d="M281,106L250,141L293,190Z" fill="#aceae2" stroke="#aceae2" stroke-width="1.51"/><path d="M382,-21L360,60L413,28Z" fill="#a2d6d5" stroke="#a2d6d5" stroke-width="1.51"/><path d="M213,28L250,141L281,106Z" fill="#b4e6e1" stroke="#b4e6e1" stroke-width="1.51"/><path d="M577,97L516,48L469,99Z" fill="#8aaeac" stroke="#8aaeac" stroke-width="1.51"/><path d="M261,190L282,259L293,190Z" fill="#a3ebe2" stroke="#a3ebe2" stroke-width="1.51"/><path d="M373,294L451,330L436,236Z" fill="#79aeaa" stroke="#79aeaa" stroke-width="1.51"/><path d="M425,345L451,330L373,294Z" fill="#6f9d9a" stroke="#6f9d9a" stroke-width="1.51"/><path d="M451,14L382,-21L413,28Z" fill="#96c6c8" stroke="#96c6c8" stroke-width="1.51"/><path d="M542,178L577,97L469,99Z" fill="#84adaa" stroke="#84adaa" stroke-width="1.51"/><path d="M261,190L235,233L282,259Z" fill="#a0e2da" stroke="#a0e2da" stroke-width="1.51"/><path d="M189,189L235,233L261,190Z" fill="#a9ebe3" stroke="#a9ebe3" stroke-width="1.51"/><path d="M237,291L313,275L282,259Z" fill="#90c8c3" stroke="#90c8c3" stroke-width="1.51"/><path d="M311,378L373,294L313,275Z" fill="#7fb3af" stroke="#7fb3af" stroke-width="1.51"/><path d="M362,400L425,345L373,294Z" fill="#6e9b98" stroke="#6e9b98" stroke-width="1.51"/><path d="M512,232L559,271L542,178Z" fill="#73a5a1" stroke="#73a5a1" stroke-width="1.51"/><path d="M542,178L613,159L577,97Z" fill="#789d9b" stroke="#789d9b" stroke-width="1.51"/><path d="M533,313L559,271L512,232Z" fill="#668f8d" stroke="#668f8d" stroke-width="1.51"/><path d="M533,313L512,232L451,330Z" fill="#68908e" stroke="#68908e" stroke-width="1.51"/><path d="M382,-21L322,-14L360,60Z" fill="#a3dadb" stroke="#a3dadb" stroke-width="1.51"/><path d="M505,337L533,313L451,330Z" fill="#5e7f7f" stroke="#5e7f7f" stroke-width="1.51"/><path d="M479,357L505,337L451,330Z" fill="#5d7e7e" stroke="#5d7e7e" stroke-width="1.51"/><path d="M618,268L613,159L542,178Z" fill="#6f9a98" stroke="#6f9a98" stroke-width="1.51"/><path d="M425,345L479,357L451,330Z" fill="#628684" stroke="#628684" stroke-width="1.51"/><path d="M235,233L237,291L282,259Z" fill="#96cfc9" stroke="#96cfc9" stroke-width="1.51"/><path d="M235,233L147,233L237,291Z" fill="#9cd3cd" stroke="#9cd3cd" stroke-width="1.51"/><path d="M250,141L189,189L261,190Z" fill="#aceae2" stroke="#aceae2" stroke-width="1.51"/><path d="M160,85L189,189L250,141Z" fill="#b2e7e1" stroke="#b2e7e1" stroke-width="1.51"/><path d="M213,28L281,106L283,62Z" fill="#b5e6e0" stroke="#b5e6e0" stroke-width="1.51"/><path d="M451,14L424,-85L382,-21Z" fill="#88b9c2" stroke="#88b9c2" stroke-width="1.51"/><path d="M382,-21L371,-93L322,-14Z" fill="#91cbd3" stroke="#91cbd3" stroke-width="1.51"/><path d="M516,48L493,-44L451,14Z" fill="#87acb0" stroke="#87acb0" stroke-width="1.51"/><path d="M536,-47L493,-44L516,48Z" fill="#7a9ca4" stroke="#7a9ca4" stroke-width="1.51"/><path d="M577,97L583,26L516,48Z" fill="#83a09f" stroke="#83a09f" stroke-width="1.51"/><path d="M621,60L583,26L577,97Z" fill="#7c9494" stroke="#7c9494" stroke-width="1.51"/><path d="M613,159L626,99L577,97Z" fill="#749392" stroke="#749392" stroke-width="1.51"/><path d="M322,-14L213,28L283,62Z" fill="#aedddc" stroke="#aedddc" stroke-width="1.51"/><path d="M626,99L621,60L577,97Z" fill="#779191" stroke="#779191" stroke-width="1.51"/><path d="M237,291L311,378L313,275Z" fill="#82b3af" stroke="#82b3af" stroke-width="1.51"/><path d="M425,345L466,418L479,357Z" fill="#587676" stroke="#587676" stroke-width="1.51"/><path d="M559,271L618,268L542,178Z" fill="#699290" stroke="#699290" stroke-width="1.51"/><path d="M613,159L667,149L626,99Z" fill="#70918f" stroke="#70918f" stroke-width="1.51"/><path d="M533,313L595,303L559,271Z" fill="#5a7979" stroke="#5a7979" stroke-width="1.51"/><path d="M578,398L595,303L533,313Z" fill="#4c6164" stroke="#4c6164" stroke-width="1.51"/><path d="M578,398L533,313L505,337Z" fill="#4f6668" stroke="#4f6668" stroke-width="1.51"/><path d="M595,303L618,268L559,271Z" fill="#597777" stroke="#597777" stroke-width="1.51"/><path d="M539,-57L536,-47L593,-92Z" fill="#617f8f" stroke="#617f8f" stroke-width="1.51"/><path d="M583,26L536,-47L516,48Z" fill="#7b989e" stroke="#7b989e" stroke-width="1.51"/><path d="M510,-94L424,-85L493,-44Z" fill="#6e97a8" stroke="#6e97a8" stroke-width="1.51"/><path d="M493,-44L424,-85L451,14Z" fill="#7ea9b4" stroke="#7ea9b4" stroke-width="1.51"/><path d="M322,-14L263,-57L213,28Z" fill="#a1d0d7" stroke="#a1d0d7" stroke-width="1.51"/><path d="M311,378L362,400L373,294Z" fill="#719e9c" stroke="#719e9c" stroke-width="1.51"/><path d="M424,-85L371,-93L382,-21Z" fill="#82b7c5" stroke="#82b7c5" stroke-width="1.51"/><path d="M536,-47L539,-57L493,-44Z" fill="#6d8e9c" stroke="#6d8e9c" stroke-width="1.51"/><path d="M593,-92L536,-47L583,26Z" fill="#66818f" stroke="#66818f" stroke-width="1.51"/><path d="M213,28L160,85L250,141Z" fill="#b7e5e0" stroke="#b7e5e0" stroke-width="1.51"/><path d="M213,28L164,25L160,85Z" fill="#bce2de" stroke="#bce2de" stroke-width="1.51"/><path d="M371,-93L263,-57L322,-14Z" fill="#90c5d1" stroke="#90c5d1" stroke-width="1.51"/><path d="M239,-53L204,-6L213,28Z" fill="#a6d0d6" stroke="#a6d0d6" stroke-width="1.51"/><path d="M618,268L667,149L613,159Z" fill="#6a9391" stroke="#6a9391" stroke-width="1.51"/><path d="M626,99L679,105L621,60Z" fill="#748e8e" stroke="#748e8e" stroke-width="1.51"/><path d="M362,400L466,418L425,345Z" fill="#5e8180" stroke="#5e8180" stroke-width="1.51"/><path d="M551,431L578,398L505,337Z" fill="#455759" stroke="#455759" stroke-width="1.51"/><path d="M189,189L147,233L235,233Z" fill="#a9e6de" stroke="#a9e6de" stroke-width="1.51"/><path d="M202,363L278,411L311,378Z" fill="#709291" stroke="#709291" stroke-width="1.51"/><path d="M75,154L147,233L189,189Z" fill="#b1e7e1" stroke="#b1e7e1" stroke-width="1.51"/><path d="M263,-57L239,-53L213,28Z" fill="#9fccd4" stroke="#9fccd4" stroke-width="1.51"/><path d="M144,-87L239,-53L263,-57Z" fill="#93bfce" stroke="#93bfce" stroke-width="1.51"/><path d="M539,-57L510,-94L493,-44Z" fill="#698c9d" stroke="#698c9d" stroke-width="1.51"/><path d="M424,-85L510,-94L371,-93Z" fill="#71a1b3" stroke="#71a1b3" stroke-width="1.51"/><path d="M161,-36L164,25L204,-6Z" fill="#aad1d7" stroke="#aad1d7" stroke-width="1.51"/><path d="M204,-6L164,25L213,28Z" fill="#b0d8da" stroke="#b0d8da" stroke-width="1.51"/><path d="M160,85L89,108L189,189Z" fill="#b6e5e0" stroke="#b6e5e0" stroke-width="1.51"/><path d="M621,60L638,11L583,26Z" fill="#758a8e" stroke="#758a8e" stroke-width="1.51"/><path d="M539,-57L593,-92L510,-94Z" fill="#5e7c90" stroke="#5e7c90" stroke-width="1.51"/><path d="M684,44L638,11L621,60Z" fill="#748a8b" stroke="#748a8b" stroke-width="1.51"/><path d="M618,268L721,206L667,149Z" fill="#66918d" stroke="#66918d" stroke-width="1.51"/><path d="M595,303L652,286L618,268Z" fill="#536e6f" stroke="#536e6f" stroke-width="1.51"/><path d="M634,350L652,286L595,303Z" fill="#4b6163" stroke="#4b6163" stroke-width="1.51"/><path d="M762,114L679,105L667,149Z" fill="#6b8b88" stroke="#6b8b88" stroke-width="1.51"/><path d="M667,149L679,105L626,99Z" fill="#6f8e8d" stroke="#6f8e8d" stroke-width="1.51"/><path d="M362,400L449,468L466,418Z" fill="#567978" stroke="#567978" stroke-width="1.51"/><path d="M311,378L355,435L362,400Z" fill="#68928f" stroke="#68928f" stroke-width="1.51"/><path d="M278,411L355,435L311,378Z" fill="#69918e" stroke="#69918e" stroke-width="1.51"/><path d="M202,363L311,378L237,291Z" fill="#7ca2a0" stroke="#7ca2a0" stroke-width="1.51"/><path d="M196,357L202,363L237,291Z" fill="#80a5a3" stroke="#80a5a3" stroke-width="1.51"/><path d="M143,319L196,357L237,291Z" fill="#86acaa" stroke="#86acaa" stroke-width="1.51"/><path d="M551,431L505,337L479,357Z" fill="#4d6365" stroke="#4d6365" stroke-width="1.51"/><path d="M578,398L634,350L595,303Z" fill="#425154" stroke="#425154" stroke-width="1.51"/><path d="M679,105L684,44L621,60Z" fill="#748c8b" stroke="#748c8b" stroke-width="1.51"/><path d="M638,11L593,-92L583,26Z" fill="#667c88" stroke="#667c88" stroke-width="1.51"/><path d="M144,449L217,450L202,363Z" fill="#708b8b" stroke="#708b8b" stroke-width="1.51"/><path d="M147,233L143,319L237,291Z" fill="#95c2be" stroke="#95c2be" stroke-width="1.51"/><path d="M665,449L669,340L634,350Z" fill="#364245" stroke="#364245" stroke-width="1.51"/><path d="M466,418L551,431L479,357Z" fill="#4d6465" stroke="#4d6465" stroke-width="1.51"/><path d="M449,468L551,431L466,418Z" fill="#4a6463" stroke="#4a6463" stroke-width="1.51"/><path d="M239,-53L161,-36L204,-6Z" fill="#a0c9d3" stroke="#a0c9d3" stroke-width="1.51"/><path d="M69,34L89,108L160,85Z" fill="#bbdfde" stroke="#bbdfde" stroke-width="1.51"/><path d="M144,-87L161,-36L239,-53Z" fill="#98c0cf" stroke="#98c0cf" stroke-width="1.51"/><path d="M355,435L449,468L362,400Z" fill="#5d8681" stroke="#5d8681" stroke-width="1.51"/><path d="M428,519L449,468L384,528Z" fill="#4e726d" stroke="#4e726d" stroke-width="1.51"/><path d="M685,-83L593,-92L638,11Z" fill="#586f7f" stroke="#586f7f" stroke-width="1.51"/><path d="M69,34L160,85L164,25Z" fill="#bfe1de" stroke="#bfe1de" stroke-width="1.51"/><path d="M147,233L119,319L143,319Z" fill="#94bbb9" stroke="#94bbb9" stroke-width="1.51"/><path d="M714,269L721,206L652,286Z" fill="#567976" stroke="#567976" stroke-width="1.51"/><path d="M652,286L721,206L618,268Z" fill="#597b7a" stroke="#597b7a" stroke-width="1.51"/><path d="M762,114L736,21L684,44Z" fill="#6e8685" stroke="#6e8685" stroke-width="1.51"/><path d="M634,350L669,340L652,286Z" fill="#45595a" stroke="#45595a" stroke-width="1.51"/><path d="M642,454L634,350L578,398Z" fill="#374345" stroke="#374345" stroke-width="1.51"/><path d="M161,-36L129,-16L164,25Z" fill="#abced6" stroke="#abced6" stroke-width="1.51"/><path d="M143,319L123,396L196,357Z" fill="#7d9899" stroke="#7d9899" stroke-width="1.51"/><path d="M217,450L302,478L278,411Z" fill="#678b87" stroke="#678b87" stroke-width="1.51"/><path d="M70,215L119,319L147,233Z" fill="#a0cdca" stroke="#a0cdca" stroke-width="1.51"/><path d="M669,340L714,269L652,286Z" fill="#4b6464" stroke="#4b6464" stroke-width="1.51"/><path d="M89,108L75,154L189,189Z" fill="#b6e5e0" stroke="#b6e5e0" stroke-width="1.51"/><path d="M278,411L302,478L355,435Z" fill="#658d89" stroke="#658d89" stroke-width="1.51"/><path d="M217,450L278,411L202,363Z" fill="#6f8e8d" stroke="#6f8e8d" stroke-width="1.51"/><path d="M75,154L70,215L147,233Z" fill="#ace3df" stroke="#ace3df" stroke-width="1.51"/><path d="M70,215L2,302L119,319Z" fill="#8db6b9" stroke="#8db6b9" stroke-width="1.51"/><path d="M75,154L64,214L70,215Z" fill="#a7dddc" stroke="#a7dddc" stroke-width="1.51"/><path d="M123,396L202,363L196,357Z" fill="#789292" stroke="#789292" stroke-width="1.51"/><path d="M780,335L739,249L714,269Z" fill="#496664" stroke="#496664" stroke-width="1.51"/><path d="M714,269L739,249L721,206Z" fill="#577d79" stroke="#577d79" stroke-width="1.51"/><path d="M762,114L684,44L679,105Z" fill="#6d8987" stroke="#6d8987" stroke-width="1.51"/><path d="M75,154L46,146L64,214Z" fill="#a7d9db" stroke="#a7d9db" stroke-width="1.51"/><path d="M89,108L46,146L75,154Z" fill="#addadb" stroke="#addadb" stroke-width="1.51"/><path d="M129,-16L69,34L164,25Z" fill="#b5d5d9" stroke="#b5d5d9" stroke-width="1.51"/><path d="M129,-16L68,-50L69,34Z" fill="#a6c7d2" stroke="#a6c7d2" stroke-width="1.51"/><path d="M161,-36L144,-87L129,-16Z" fill="#9fc3d0" stroke="#9fc3d0" stroke-width="1.51"/><path d="M371,-93L144,-87L263,-57Z" fill="#8bbccd" stroke="#8bbccd" stroke-width="1.51"/><path d="M27,78L46,146L89,108Z" fill="#acd5d9" stroke="#acd5d9" stroke-width="1.51"/><path d="M684,44L710,-36L638,11Z" fill="#677d84" stroke="#677d84" stroke-width="1.51"/><path d="M762,114L667,149L721,206Z" fill="#668b88" stroke="#668b88" stroke-width="1.51"/><path d="M824,113L762,114L845,167Z" fill="#60827e" stroke="#60827e" stroke-width="1.51"/><path d="M449,468L514,528L551,431Z" fill="#415a59" stroke="#415a59" stroke-width="1.51"/><path d="M384,528L449,468L355,435Z" fill="#567e79" stroke="#567e79" stroke-width="1.51"/><path d="M736,21L710,-36L684,44Z" fill="#657c81" stroke="#657c81" stroke-width="1.51"/><path d="M302,478L384,528L355,435Z" fill="#5d8983" stroke="#5d8983" stroke-width="1.51"/><path d="M217,450L220,475L302,478Z" fill="#668884" stroke="#668884" stroke-width="1.51"/><path d="M147,480L220,475L217,450Z" fill="#698683" stroke="#698683" stroke-width="1.51"/><path d="M119,319L123,396L143,319Z" fill="#839f9e" stroke="#839f9e" stroke-width="1.51"/><path d="M70,427L123,396L16,360Z" fill="#6e8489" stroke="#6e8489" stroke-width="1.51"/><path d="M220,475L384,528L302,478Z" fill="#5f8681" stroke="#5f8681" stroke-width="1.51"/><path d="M710,-36L685,-83L638,11Z" fill="#5a717e" stroke="#5a717e" stroke-width="1.51"/><path d="M551,431L642,454L578,398Z" fill="#384547" stroke="#384547" stroke-width="1.51"/><path d="M669,340L765,344L714,269Z" fill="#425858" stroke="#425858" stroke-width="1.51"/><path d="M629,483L642,454L551,431Z" fill="#313d3f" stroke="#313d3f" stroke-width="1.51"/><path d="M428,519L514,528L449,468Z" fill="#466461" stroke="#466461" stroke-width="1.51"/><path d="M384,528L514,528L428,519Z" fill="#476964" stroke="#476964" stroke-width="1.51"/><path d="M69,34L27,78L89,108Z" fill="#b1d5d9" stroke="#b1d5d9" stroke-width="1.51"/><path d="M-25,187L3,247L64,214Z" fill="#97ced4" stroke="#97ced4" stroke-width="1.51"/><path d="M-36,-20L27,78L69,34Z" fill="#a5c6d2" stroke="#a5c6d2" stroke-width="1.51"/><path d="M514,528L550,518L551,431Z" fill="#394d4d" stroke="#394d4d" stroke-width="1.51"/><path d="M123,396L144,449L202,363Z" fill="#748d8d" stroke="#748d8d" stroke-width="1.51"/><path d="M629,483L665,449L642,454Z" fill="#2d3a3b" stroke="#2d3a3b" stroke-width="1.51"/><path d="M642,454L665,449L634,350Z" fill="#333f41" stroke="#333f41" stroke-width="1.51"/><path d="M550,518L629,483L551,431Z" fill="#344444" stroke="#344444" stroke-width="1.51"/><path d="M144,-87L68,-50L129,-16Z" fill="#9ebfcf" stroke="#9ebfcf" stroke-width="1.51"/><path d="M27,78L10,102L46,146Z" fill="#a6d0d7" stroke="#a6d0d7" stroke-width="1.51"/><path d="M64,214L3,247L70,215Z" fill="#9bd0d2" stroke="#9bd0d2" stroke-width="1.51"/><path d="M-39,94L10,102L27,78Z" fill="#a2c9d3" stroke="#a2c9d3" stroke-width="1.51"/><path d="M829,213L762,114L721,206Z" fill="#5f8782" stroke="#5f8782" stroke-width="1.51"/><path d="M772,436L765,344L669,340Z" fill="#313d3f" stroke="#313d3f" stroke-width="1.51"/><path d="M-25,187L64,214L46,146Z" fill="#9ed3d8" stroke="#9ed3d8" stroke-width="1.51"/><path d="M112,493L147,480L144,449Z" fill="#6c8381" stroke="#6c8381" stroke-width="1.51"/><path d="M710,-36L761,-47L685,-83Z" fill="#506876" stroke="#506876" stroke-width="1.51"/><path d="M736,21L761,-47L710,-36Z" fill="#5a717a" stroke="#5a717a" stroke-width="1.51"/><path d="M818,28L761,-47L736,21Z" fill="#5d7479" stroke="#5d7479" stroke-width="1.51"/><path d="M818,28L736,21L762,114Z" fill="#6b8280" stroke="#6b8280" stroke-width="1.51"/><path d="M70,427L144,449L123,396Z" fill="#728889" stroke="#728889" stroke-width="1.51"/><path d="M144,449L147,480L217,450Z" fill="#6b8685" stroke="#6b8685" stroke-width="1.51"/><path d="M220,475L112,493L384,528Z" fill="#62847f" stroke="#62847f" stroke-width="1.51"/><path d="M765,344L780,335L714,269Z" fill="#3f5655" stroke="#3f5655" stroke-width="1.51"/><path d="M795,343L780,335L765,344Z" fill="#364948" stroke="#364948" stroke-width="1.51"/><path d="M68,-50L42,-44L69,34Z" fill="#9cbece" stroke="#9cbece" stroke-width="1.51"/><path d="M67,-85L42,-44L68,-50Z" fill="#8fb1c8" stroke="#8fb1c8" stroke-width="1.51"/><path d="M144,-87L67,-85L68,-50Z" fill="#92b4c9" stroke="#92b4c9" stroke-width="1.51"/><path d="M779,-113L67,-85L144,-87Z" fill="#81b9cb" stroke="#81b9cb" stroke-width="1.51"/><path d="M829,213L721,206L739,249Z" fill="#59837e" stroke="#59837e" stroke-width="1.51"/><path d="M3,247L2,302L70,215Z" fill="#8dbbc1" stroke="#8dbbc1" stroke-width="1.51"/><path d="M813,305L829,213L739,249Z" fill="#4d706c" stroke="#4d706c" stroke-width="1.51"/><path d="M16,360L123,396L119,319Z" fill="#799195" stroke="#799195" stroke-width="1.51"/><path d="M-39,94L-25,187L10,102Z" fill="#9ac7d2" stroke="#9ac7d2" stroke-width="1.51"/><path d="M10,102L-25,187L46,146Z" fill="#9fced5" stroke="#9fced5" stroke-width="1.51"/><path d="M3,247L-84,232L2,302Z" fill="#7faeba" stroke="#7faeba" stroke-width="1.51"/><path d="M780,335L813,305L739,249Z" fill="#425d5b" stroke="#425d5b" stroke-width="1.51"/><path d="M772,436L795,343L765,344Z" fill="#2d3a3b" stroke="#2d3a3b" stroke-width="1.51"/><path d="M772,436L669,340L665,449Z" fill="#2f3c3d" stroke="#2f3c3d" stroke-width="1.51"/><path d="M824,113L818,28L762,114Z" fill="#65817e" stroke="#65817e" stroke-width="1.51"/><path d="M795,343L813,305L780,335Z" fill="#394d4c" stroke="#394d4c" stroke-width="1.51"/><path d="M-34,360L6,337L2,302Z" fill="#6d8b97" stroke="#6d8b97" stroke-width="1.51"/><path d="M2,302L6,337L119,319Z" fill="#7c9ca3" stroke="#7c9ca3" stroke-width="1.51"/><path d="M6,337L16,360L119,319Z" fill="#77939a" stroke="#77939a" stroke-width="1.51"/><path d="M824,113L846,36L818,28Z" fill="#657d7a" stroke="#657d7a" stroke-width="1.51"/><path d="M829,213L845,167L762,114Z" fill="#5d847e" stroke="#5d847e" stroke-width="1.51"/><path d="M890,208L845,167L829,213Z" fill="#56827b" stroke="#56827b" stroke-width="1.51"/><path d="M31,503L112,493L70,427Z" fill="#647a7d" stroke="#647a7d" stroke-width="1.51"/><path d="M70,427L112,493L144,449Z" fill="#6d8483" stroke="#6d8483" stroke-width="1.51"/><path d="M147,480L112,493L220,475Z" fill="#698381" stroke="#698381" stroke-width="1.51"/><path d="M-55,22L-39,94L27,78Z" fill="#9fc3d0" stroke="#9fc3d0" stroke-width="1.51"/><path d="M834,-44L779,-113L761,-47Z" fill="#465f6e" stroke="#465f6e" stroke-width="1.51"/><path d="M897,104L846,36L824,113Z" fill="#617d79" stroke="#617d79" stroke-width="1.51"/><path d="M710,509L665,449L629,483Z" fill="#293736" stroke="#293736" stroke-width="1.51"/><path d="M710,509L772,436L665,449Z" fill="#283534" stroke="#283534" stroke-width="1.51"/><path d="M795,343L851,327L813,305Z" fill="#374d4b" stroke="#374d4b" stroke-width="1.51"/><path d="M834,-44L761,-47L818,28Z" fill="#536c73" stroke="#536c73" stroke-width="1.51"/><path d="M761,-47L779,-113L685,-83Z" fill="#465f71" stroke="#465f71" stroke-width="1.51"/><path d="M685,-83L779,-113L593,-92Z" fill="#475f74" stroke="#475f74" stroke-width="1.51"/><path d="M593,-92L779,-113L510,-94Z" fill="#4a637a" stroke="#4a637a" stroke-width="1.51"/><path d="M510,-94L779,-113L371,-93Z" fill="#56758b" stroke="#56758b" stroke-width="1.51"/><path d="M371,-93L779,-113L144,-87Z" fill="#6fa0b3" stroke="#6fa0b3" stroke-width="1.51"/><path d="M550,518L710,509L629,483Z" fill="#2a3737" stroke="#2a3737" stroke-width="1.51"/><path d="M775,529L710,509L550,518Z" fill="#243231" stroke="#243231" stroke-width="1.51"/><path d="M867,11L834,-44L818,28Z" fill="#566e72" stroke="#566e72" stroke-width="1.51"/><path d="M-20,-66L-36,-20L42,-44Z" fill="#86a9c4" stroke="#86a9c4" stroke-width="1.51"/><path d="M42,-44L-36,-20L69,34Z" fill="#98bacc" stroke="#98bacc" stroke-width="1.51"/><path d="M-6,421L28,449L70,427Z" fill="#607780" stroke="#607780" stroke-width="1.51"/><path d="M-6,421L70,427L16,360Z" fill="#647a84" stroke="#647a84" stroke-width="1.51"/><path d="M-34,360L16,360L6,337Z" fill="#68828f" stroke="#68828f" stroke-width="1.51"/><path d="M866,368L851,327L795,343Z" fill="#304141" stroke="#304141" stroke-width="1.51"/><path d="M813,305L882,225L829,213Z" fill="#4b706b" stroke="#4b706b" stroke-width="1.51"/><path d="M897,104L867,11L846,36Z" fill="#657c78" stroke="#657c78" stroke-width="1.51"/><path d="M-36,-20L-55,22L27,78Z" fill="#9abccd" stroke="#9abccd" stroke-width="1.51"/><path d="M-39,94L-76,177L-25,187Z" fill="#91c2d0" stroke="#91c2d0" stroke-width="1.51"/><path d="M67,-85L-20,-66L42,-44Z" fill="#86aac4" stroke="#86aac4" stroke-width="1.51"/><path d="M-36,-20L-82,11L-55,22Z" fill="#8aadc6" stroke="#8aadc6" stroke-width="1.51"/><path d="M-25,187L-84,232L3,247Z" fill="#89c0cc" stroke="#89c0cc" stroke-width="1.51"/><path d="M-123,141L-76,177L-39,94Z" fill="#8bbacc" stroke="#8bbacc" stroke-width="1.51"/><path d="M851,327L882,225L813,305Z" fill="#405d59" stroke="#405d59" stroke-width="1.51"/><path d="M846,36L867,11L818,28Z" fill="#5e7575" stroke="#5e7575" stroke-width="1.51"/><path d="M-125,310L-34,360L2,302Z" fill="#668797" stroke="#668797" stroke-width="1.51"/><path d="M897,104L824,113L845,167Z" fill="#5d7f7a" stroke="#5d7f7a" stroke-width="1.51"/><path d="M-34,360L-6,421L16,360Z" fill="#607684" stroke="#607684" stroke-width="1.51"/><path d="M882,225L890,208L829,213Z" fill="#548079" stroke="#548079" stroke-width="1.51"/><path d="M900,428L890,208L882,225Z" fill="#3f5d59" stroke="#3f5d59" stroke-width="1.51"/><path d="M-76,177L-84,232L-25,187Z" fill="#88c1cf" stroke="#88c1cf" stroke-width="1.51"/><path d="M-123,141L-84,232L-76,177Z" fill="#82b9cc" stroke="#82b9cc" stroke-width="1.51"/><path d="M890,208L897,104L845,167Z" fill="#5a807b" stroke="#5a807b" stroke-width="1.51"/><path d="M851,327L866,368L882,225Z" fill="#3a5350" stroke="#3a5350" stroke-width="1.51"/><path d="M829,449L866,368L795,343Z" fill="#283535" stroke="#283535" stroke-width="1.51"/><path d="M829,449L795,343L772,436Z" fill="#283535" stroke="#283535" stroke-width="1.51"/><path d="M-2,495L28,449L-6,421Z" fill="#59707a" stroke="#59707a" stroke-width="1.51"/><path d="M-2,495L31,503L28,449Z" fill="#586f77" stroke="#586f77" stroke-width="1.51"/><path d="M28,449L31,503L70,427Z" fill="#60767d" stroke="#60767d" stroke-width="1.51"/><path d="M112,493L31,503L384,528Z" fill="#65817d" stroke="#65817d" stroke-width="1.51"/><path d="M-55,22L-117,71L-39,94Z" fill="#95b9cc" stroke="#95b9cc" stroke-width="1.51"/><path d="M-109,-73L-82,11L-36,-20Z" fill="#7ba0bf" stroke="#7ba0bf" stroke-width="1.51"/><path d="M867,11L868,-51L834,-44Z" fill="#4e666e" stroke="#4e666e" stroke-width="1.51"/><path d="M834,-44L843,-114L779,-113Z" fill="#3d5768" stroke="#3d5768" stroke-width="1.51"/><path d="M897,104L868,-51L867,11Z" fill="#5c7475" stroke="#5c7475" stroke-width="1.51"/><path d="M835,486L829,449L772,436Z" fill="#212f2d" stroke="#212f2d" stroke-width="1.51"/><path d="M868,-51L843,-114L834,-44Z" fill="#415a68" stroke="#415a68" stroke-width="1.51"/><path d="M710,509L775,529L772,436Z" fill="#22302e" stroke="#22302e" stroke-width="1.51"/><path d="M514,528L775,529L550,518Z" fill="#293635" stroke="#293635" stroke-width="1.51"/><path d="M384,528L775,529L514,528Z" fill="#314442" stroke="#314442" stroke-width="1.51"/><path d="M-67,455L-2,495L-6,421Z" fill="#526a77" stroke="#526a77" stroke-width="1.51"/><path d="M-82,369L-6,421L-34,360Z" fill="#587081" stroke="#587081" stroke-width="1.51"/><path d="M-117,71L-123,141L-39,94Z" fill="#8cb6ca" stroke="#8cb6ca" stroke-width="1.51"/><path d="M-125,310L-82,369L-34,360Z" fill="#59768a" stroke="#59768a" stroke-width="1.51"/><path d="M-82,11L-117,71L-55,22Z" fill="#8eb1c8" stroke="#8eb1c8" stroke-width="1.51"/><path d="M-125,310L2,302L-84,232Z" fill="#7099ab" stroke="#7099ab" stroke-width="1.51"/><path d="M829,449L900,428L866,368Z" fill="#243130" stroke="#243130" stroke-width="1.51"/><path d="M775,529L835,486L772,436Z" fill="#1f2d2b" stroke="#1f2d2b" stroke-width="1.51"/><path d="M-82,369L-67,455L-6,421Z" fill="#526a7a" stroke="#526a7a" stroke-width="1.51"/><path d="M-123,141L-125,310L-84,232Z" fill="#76adc1" stroke="#76adc1" stroke-width="1.51"/><path d="M-121,488L-67,455L-82,369Z" fill="#476073" stroke="#476073" stroke-width="1.51"/><path d="M-20,-66L-109,-73L-36,-20Z" fill="#779cbd" stroke="#779cbd" stroke-width="1.51"/><path d="M-82,11L-109,-73L-117,71Z" fill="#7fa3c1" stroke="#7fa3c1" stroke-width="1.51"/><path d="M-117,71L-109,-73L-123,141Z" fill="#8baec6" stroke="#8baec6" stroke-width="1.51"/><path d="M67,-85L-109,-73L-20,-66Z" fill="#789cbd" stroke="#789cbd" stroke-width="1.51"/><path d="M835,486L900,428L829,449Z" fill="#1f2d2b" stroke="#1f2d2b" stroke-width="1.51"/><path d="M866,368L900,428L882,225Z" fill="#314442" stroke="#314442" stroke-width="1.51"/><path d="M890,208L900,428L897,104Z" fill="#4b706b" stroke="#4b706b" stroke-width="1.51"/><path d="M835,486L860,509L900,428Z" fill="#1d2b28" stroke="#1d2b28" stroke-width="1.51"/><path d="M775,529L860,509L835,486Z" fill="#1b2926" stroke="#1b2926" stroke-width="1.51"/><path d="M-67,455L-121,488L-2,495Z" fill="#476070" stroke="#476070" stroke-width="1.51"/><path d="M-2,495L-121,488L31,503Z" fill="#4c6471" stroke="#4c6471" stroke-width="1.51"/><path d="M-125,310L-121,488L-82,369Z" fill="#496279" stroke="#496279" stroke-width="1.51"/></svg>