<svg xmlns="http://www.w3.org/2000/svg" width="720" height="420"><path d="M372 180l68-6-40-54z" fill="#9adcd5" stroke="#9adcd5" stroke-width="1.51"/><path d="M440 174l26-22-66-32z" fill="#95d0ca" stroke="#95d0ca" stroke-width="1.51"/><path d="M372 180l64 56 4-62z" fill="#93d9d1" stroke="#93d9d1" stroke-width="1.51"/><path d="M440 174l72 58-46-80z" fill="#89c4be" stroke="#89c4be" stroke-width="1.51"/><path d="M400 120l-38-37 10 97z" fill="#a3e4dd" stroke="#a3e4dd" stroke-width="1.51"/><path d="M360 60l2 23 51-55z" fill="#abe1db" stroke="#abe1db" stroke-width="1.51"/><path d="M466 152l3-53-69 21z" fill="#96cbc6" stroke="#96cbc6" stroke-width="1.51"/><path d="M372 180l11 66 53-10z" fill="#92dbd3" stroke="#92dbd3" stroke-width="1.51"/><path d="M413 28l-51 55 38 37z" fill="#a6ddd7" stroke="#a6ddd7" stroke-width="1.51"/><path d="M281 106l91 74-10-97z" fill="#a9ebe2" stroke="#a9ebe2" stroke-width="1.51"/><path d="M281 106l12 84 79-10z" fill="#a8ebe3" stroke="#a8ebe3" stroke-width="1.51"/><path d="M372 180l-79 10 90 56z" fill="#a0efe5" stroke="#a0efe5" stroke-width="1.51"/><path d="M436 236l76-4-72-58z" fill="#87c6c0" stroke="#87c6c0" stroke-width="1.51"/><path d="M466 152l76 26-73-79z" fill="#89bbb7" stroke="#89bbb7" stroke-width="1.51"/><path d="M451 330l61-98-76 4z" fill="#76a9a5" stroke="#76a9a5" stroke-width="1.51"/><path d="M469 99l-56-71-13 92z" fill="#9ed0cb" stroke="#9ed0cb" stroke-width="1.51"/><path d="M283 62l-2 44 81-23z" fill="#b0e8e2" stroke="#b0e8e2" stroke-width="1.51"/><path d="M283 62l79 21-2-23z" fill="#b0e8e1" stroke="#b0e8e1" stroke-width="1.51"/><path d="M512 232l30-54-76-26z" fill="#82b8b3" stroke="#82b8b3" stroke-width="1.51"/><path d="M469 99l-18-85-38 14z" fill="#9dc8c5" stroke="#9dc8c5" stroke-width="1.51"/><path d="M383 246l-10 48 63-58z" fill="#86c6c0" stroke="#86c6c0" stroke-width="1.51"/><path d="M313 275l60 19 10-48z" fill="#8bccc6" stroke="#8bccc6" stroke-width="1.51"/><path d="M293 190l20 85 70-29z" fill="#98dfd6" stroke="#98dfd6" stroke-width="1.51"/><path d="M250 141l11 49h32z" fill="#a9ebe2" stroke="#a9ebe2" stroke-width="1.51"/><path d="M282 259l31 16-20-85z" fill="#99dbd4" stroke="#99dbd4" stroke-width="1.51"/><path d="M516 48l-65-34 18 85z" fill="#95bcb9" stroke="#95bcb9" stroke-width="1.51"/><path d="M322-14l-39 76 77-2z" fill="#afe3df" stroke="#afe3df" stroke-width="1.51"/><path d="M281 106l-31 35 43 49z" fill="#aceae2" stroke="#aceae2" stroke-width="1.51"/><path d="M382-21l-22 81 53-32z" fill="#a2d6d5" stroke="#a2d6d5" stroke-width="1.51"/><path d="M213 28l37 113 31-35z" fill="#b4e6e1" stroke="#b4e6e1" stroke-width="1.51"/><path d="M577 97l-61-49-47 51z" fill="#8aaeac" stroke="#8aaeac" stroke-width="1.51"/><path d="M261 190l21 69 11-69z" fill="#a3ebe2" stroke="#a3ebe2" stroke-width="1.51"/><path d="M373 294l78 36-15-94z" fill="#79aeaa" stroke="#79aeaa" stroke-width="1.51"/><path d="M425 345l26-15-78-36z" fill="#6f9d9a" stroke="#6f9d9a" stroke-width="1.51"/><path d="M451 14l-69-35 31 49z" fill="#96c6c8" stroke="#96c6c8" stroke-width="1.51"/><path d="M542 178l35-81-108 2z" fill="#84adaa" stroke="#84adaa" stroke-width="1.51"/><path d="M261 190l-26 43 47 26z" fill="#a0e2da" stroke="#a0e2da" stroke-width="1.51"/><path d="M189 189l46 44 26-43z" fill="#a9ebe3" stroke="#a9ebe3" stroke-width="1.51"/><path d="M237 291l76-16-31-16z" fill="#90c8c3" stroke="#90c8c3" stroke-width="1.51"/><path d="M311 378l62-84-60-19z" fill="#7fb3af" stroke="#7fb3af" stroke-width="1.51"/><path d="M362 400l63-55-52-51z" fill="#6e9b98" stroke="#6e9b98" stroke-width="1.51"/><path d="M512 232l47 39-17-93z" fill="#73a5a1" stroke="#73a5a1" stroke-width="1.51"/><path d="M542 178l71-19-36-62z" fill="#789d9b" stroke="#789d9b" stroke-width="1.51"/><path d="M533 313l26-42-47-39z" fill="#668f8d" stroke="#668f8d" stroke-width="1.51"/><path d="M533 313l-21-81-61 98z" fill="#68908e" stroke="#68908e" stroke-width="1.51"/><path d="M382-21l-60 7 38 74z" fill="#a3dadb" stroke="#a3dadb" stroke-width="1.51"/><path d="M505 337l28-24-82 17z" fill="#5e7f7f" stroke="#5e7f7f" stroke-width="1.51"/><path d="M479 357l26-20-54-7z" fill="#5d7e7e" stroke="#5d7e7e" stroke-width="1.51"/><path d="M618 268l-5-109-71 19z" fill="#6f9a98" stroke="#6f9a98" stroke-width="1.51"/><path d="M425 345l54 12-28-27z" fill="#628684" stroke="#628684" stroke-width="1.51"/><path d="M235 233l2 58 45-32z" fill="#96cfc9" stroke="#96cfc9" stroke-width="1.51"/><path d="M235 233h-88l90 58z" fill="#9cd3cd" stroke="#9cd3cd" stroke-width="1.51"/><path d="M250 141l-61 48 72 1z" fill="#aceae2" stroke="#aceae2" stroke-width="1.51"/><path d="M160 85l29 104 61-48z" fill="#b2e7e1" stroke="#b2e7e1" stroke-width="1.51"/><path d="M213 28l68 78 2-44z" fill="#b5e6e0" stroke="#b5e6e0" stroke-width="1.51"/><path d="M451 14l-27-99-42 64z" fill="#88b9c2" stroke="#88b9c2" stroke-width="1.51"/><path d="M382-21l-11-72-49 79z" fill="#91cbd3" stroke="#91cbd3" stroke-width="1.51"/><path d="M516 48l-23-92-42 58z" fill="#87acb0" stroke="#87acb0" stroke-width="1.51"/><path d="M536-47l-43 3 23 92z" fill="#7a9ca4" stroke="#7a9ca4" stroke-width="1.51"/><path d="M577 97l6-71-67 22z" fill="#83a09f" stroke="#83a09f" stroke-width="1.51"/><path d="M621 60l-38-34-6 71z" fill="#7c9494" stroke="#7c9494" stroke-width="1.51"/><path d="M613 159l13-60-49-2z" fill="#749392" stroke="#749392" stroke-width="1.51"/><path d="M322-14L213 28l70 34z" fill="#aedddc" stroke="#aedddc" stroke-width="1.51"/><path d="M626 99l-5-39-44 37z" fill="#779191" stroke="#779191" stroke-width="1.51"/><path d="M237 291l74 87 2-103z" fill="#82b3af" stroke="#82b3af" stroke-width="1.51"/><path d="M425 345l41 73 13-61z" fill="#587676" stroke="#587676" stroke-width="1.51"/><path d="M559 271l59-3-76-90z" fill="#699290" stroke="#699290" stroke-width="1.51"/><path d="M613 159l54-10-41-50z" fill="#70918f" stroke="#70918f" stroke-width="1.51"/><path d="M533 313l62-10-36-32z" fill="#5a7979" stroke="#5a7979" stroke-width="1.51"/><path d="M578 398l17-95-62 10z" fill="#4c6164" stroke="#4c6164" stroke-width="1.51"/><path d="M578 398l-45-85-28 24z" fill="#4f6668" stroke="#4f6668" stroke-width="1.51"/><path d="M595 303l23-35-59 3z" fill="#597777" stroke="#597777" stroke-width="1.51"/><path d="M539-57l-3 10 57-45z" fill="#617f8f" stroke="#617f8f" stroke-width="1.51"/><path d="M583 26l-47-73-20 95z" fill="#7b989e" stroke="#7b989e" stroke-width="1.51"/><path d="M510-94l-86 9 69 41z" fill="#6e97a8" stroke="#6e97a8" stroke-width="1.51"/><path d="M493-44l-69-41 27 99z" fill="#7ea9b4" stroke="#7ea9b4" stroke-width="1.51"/><path d="M322-14l-59-43-50 85z" fill="#a1d0d7" stroke="#a1d0d7" stroke-width="1.51"/><path d="M311 378l51 22 11-106z" fill="#719e9c" stroke="#719e9c" stroke-width="1.51"/><path d="M424-85l-53-8 11 72z" fill="#82b7c5" stroke="#82b7c5" stroke-width="1.51"/><path d="M536-47l3-10-46 13z" fill="#6d8e9c" stroke="#6d8e9c" stroke-width="1.51"/><path d="M593-92l-57 45 47 73z" fill="#66818f" stroke="#66818f" stroke-width="1.51"/><path d="M213 28l-53 57 90 56z" fill="#b7e5e0" stroke="#b7e5e0" stroke-width="1.51"/><path d="M213 28l-49-3-4 60z" fill="#bce2de" stroke="#bce2de" stroke-width="1.51"/><path d="M371-93L263-57l59 43z" fill="#90c5d1" stroke="#90c5d1" stroke-width="1.51"/><path d="M239-53L204-6l9 34z" fill="#a6d0d6" stroke="#a6d0d6" stroke-width="1.51"/><path d="M618 268l49-119-54 10z" fill="#6a9391" stroke="#6a9391" stroke-width="1.51"/><path d="M626 99l53 6-58-45z" fill="#748e8e" stroke="#748e8e" stroke-width="1.51"/><path d="M362 400l104 18-41-73z" fill="#5e8180" stroke="#5e8180" stroke-width="1.51"/><path d="M551 431l27-33-73-61z" fill="#455759" stroke="#455759" stroke-width="1.51"/><path d="M189 189l-42 44h88z" fill="#a9e6de" stroke="#a9e6de" stroke-width="1.51"/><path d="M202 363l76 48 33-33z" fill="#709291" stroke="#709291" stroke-width="1.51"/><path d="M75 154l72 79 42-44z" fill="#b1e7e1" stroke="#b1e7e1" stroke-width="1.51"/><path d="M263-57l-24 4-26 81z" fill="#9fccd4" stroke="#9fccd4" stroke-width="1.51"/><path d="M144-87l95 34 24-4z" fill="#93bfce" stroke="#93bfce" stroke-width="1.51"/><path d="M539-57l-29-37-17 50z" fill="#698c9d" stroke="#698c9d" stroke-width="1.51"/><path d="M424-85l86-9-139 1z" fill="#71a1b3" stroke="#71a1b3" stroke-width="1.51"/><path d="M161-36l3 61 40-31z" fill="#aad1d7" stroke="#aad1d7" stroke-width="1.51"/><path d="M204-6l-40 31 49 3z" fill="#b0d8da" stroke="#b0d8da" stroke-width="1.51"/><path d="M160 85l-71 23 100 81z" fill="#b6e5e0" stroke="#b6e5e0" stroke-width="1.51"/><path d="M621 60l17-49-55 15z" fill="#758a8e" stroke="#758a8e" stroke-width="1.51"/><path d="M539-57l54-35-83-2z" fill="#5e7c90" stroke="#5e7c90" stroke-width="1.51"/><path d="M684 44l-46-33-17 49z" fill="#748a8b" stroke="#748a8b" stroke-width="1.51"/><path d="M618 268l103-62-54-57z" fill="#66918d" stroke="#66918d" stroke-width="1.51"/><path d="M595 303l57-17-34-18z" fill="#536e6f" stroke="#536e6f" stroke-width="1.51"/><path d="M634 350l18-64-57 17z" fill="#4b6163" stroke="#4b6163" stroke-width="1.51"/><path d="M762 114l-83-9-12 44z" fill="#6b8b88" stroke="#6b8b88" stroke-width="1.51"/><path d="M667 149l12-44-53-6z" fill="#6f8e8d" stroke="#6f8e8d" stroke-width="1.51"/><path d="M362 400l87 68 17-50z" fill="#567978" stroke="#567978" stroke-width="1.51"/><path d="M311 378l44 57 7-35z" fill="#68928f" stroke="#68928f" stroke-width="1.51"/><path d="M278 411l77 24-44-57z" fill="#69918e" stroke="#69918e" stroke-width="1.51"/><path d="M202 363l109 15-74-87z" fill="#7ca2a0" stroke="#7ca2a0" stroke-width="1.51"/><path d="M196 357l6 6 35-72z" fill="#80a5a3" stroke="#80a5a3" stroke-width="1.51"/><path d="M143 319l53 38 41-66z" fill="#86acaa" stroke="#86acaa" stroke-width="1.51"/><path d="M551 431l-46-94-26 20z" fill="#4d6365" stroke="#4d6365" stroke-width="1.51"/><path d="M578 398l56-48-39-47z" fill="#425154" stroke="#425154" stroke-width="1.51"/><path d="M679 105l5-61-63 16z" fill="#748c8b" stroke="#748c8b" stroke-width="1.51"/><path d="M638 11L593-92 583 26z" fill="#667c88" stroke="#667c88" stroke-width="1.51"/><path d="M144 449l73 1-15-87z" fill="#708b8b" stroke="#708b8b" stroke-width="1.51"/><path d="M147 233l-4 86 94-28z" fill="#95c2be" stroke="#95c2be" stroke-width="1.51"/><path d="M665 449l4-109-35 10z" fill="#364245" stroke="#364245" stroke-width="1.51"/><path d="M466 418l85 13-72-74z" fill="#4d6465" stroke="#4d6465" stroke-width="1.51"/><path d="M449 468l102-37-85-13z" fill="#4a6463" stroke="#4a6463" stroke-width="1.51"/><path d="M239-53l-78 17 43 30z" fill="#a0c9d3" stroke="#a0c9d3" stroke-width="1.51"/><path d="M69 34l20 74 71-23z" fill="#bbdfde" stroke="#bbdfde" stroke-width="1.51"/><path d="M144-87l17 51 78-17z" fill="#98c0cf" stroke="#98c0cf" stroke-width="1.51"/><path d="M355 435l94 33-87-68z" fill="#5d8681" stroke="#5d8681" stroke-width="1.51"/><path d="M428 519l21-51-65 60z" fill="#4e726d" stroke="#4e726d" stroke-width="1.51"/><path d="M685-83l-92-9 45 103z" fill="#586f7f" stroke="#586f7f" stroke-width="1.51"/><path d="M69 34l91 51 4-60z" fill="#bfe1de" stroke="#bfe1de" stroke-width="1.51"/><path d="M147 233l-28 86h24z" fill="#94bbb9" stroke="#94bbb9" stroke-width="1.51"/><path d="M714 269l7-63-69 80z" fill="#567976" stroke="#567976" stroke-width="1.51"/><path d="M652 286l69-80-103 62z" fill="#597b7a" stroke="#597b7a" stroke-width="1.51"/><path d="M762 114l-26-93-52 23z" fill="#6e8685" stroke="#6e8685" stroke-width="1.51"/><path d="M634 350l35-10-17-54z" fill="#45595a" stroke="#45595a" stroke-width="1.51"/><path d="M642 454l-8-104-56 48z" fill="#374345" stroke="#374345" stroke-width="1.51"/><path d="M161-36l-32 20 35 41z" fill="#abced6" stroke="#abced6" stroke-width="1.51"/><path d="M143 319l-20 77 73-39z" fill="#7d9899" stroke="#7d9899" stroke-width="1.51"/><path d="M217 450l85 28-24-67z" fill="#678b87" stroke="#678b87" stroke-width="1.51"/><path d="M70 215l49 104 28-86z" fill="#a0cdca" stroke="#a0cdca" stroke-width="1.51"/><path d="M669 340l45-71-62 17z" fill="#4b6464" stroke="#4b6464" stroke-width="1.51"/><path d="M89 108l-14 46 114 35z" fill="#b6e5e0" stroke="#b6e5e0" stroke-width="1.51"/><path d="M278 411l24 67 53-43z" fill="#658d89" stroke="#658d89" stroke-width="1.51"/><path d="M217 450l61-39-76-48z" fill="#6f8e8d" stroke="#6f8e8d" stroke-width="1.51"/><path d="M75 154l-5 61 77 18z" fill="#ace3df" stroke="#ace3df" stroke-width="1.51"/><path d="M70 215L2 302l117 17z" fill="#8db6b9" stroke="#8db6b9" stroke-width="1.51"/><path d="M75 154l-11 60 6 1z" fill="#a7dddc" stroke="#a7dddc" stroke-width="1.51"/><path d="M123 396l79-33-6-6z" fill="#789292" stroke="#789292" stroke-width="1.51"/><path d="M780 335l-41-86-25 20z" fill="#496664" stroke="#496664" stroke-width="1.51"/><path d="M714 269l25-20-18-43z" fill="#577d79" stroke="#577d79" stroke-width="1.51"/><path d="M762 114l-78-70-5 61z" fill="#6d8987" stroke="#6d8987" stroke-width="1.51"/><path d="M75 154l-29-8 18 68z" fill="#a7d9db" stroke="#a7d9db" stroke-width="1.51"/><path d="M89 108l-43 38 29 8z" fill="#addadb" stroke="#addadb" stroke-width="1.51"/><path d="M129-16L69 34l95-9z" fill="#b5d5d9" stroke="#b5d5d9" stroke-width="1.51"/><path d="M129-16L68-50l1 84z" fill="#a6c7d2" stroke="#a6c7d2" stroke-width="1.51"/><path d="M161-36l-17-51-15 71z" fill="#9fc3d0" stroke="#9fc3d0" stroke-width="1.51"/><path d="M371-93l-227 6 119 30z" fill="#8bbccd" stroke="#8bbccd" stroke-width="1.51"/><path d="M27 78l19 68 43-38z" fill="#acd5d9" stroke="#acd5d9" stroke-width="1.51"/><path d="M684 44l26-80-72 47z" fill="#677d84" stroke="#677d84" stroke-width="1.51"/><path d="M762 114l-95 35 54 57z" fill="#668b88" stroke="#668b88" stroke-width="1.51"/><path d="M824 113l-62 1 83 53z" fill="#60827e" stroke="#60827e" stroke-width="1.51"/><path d="M449 468l65 60 37-97z" fill="#415a59" stroke="#415a59" stroke-width="1.51"/><path d="M384 528l65-60-94-33z" fill="#567e79" stroke="#567e79" stroke-width="1.51"/><path d="M736 21l-26-57-26 80z" fill="#657c81" stroke="#657c81" stroke-width="1.51"/><path d="M302 478l82 50-29-93z" fill="#5d8983" stroke="#5d8983" stroke-width="1.51"/><path d="M217 450l3 25 82 3z" fill="#668884" stroke="#668884" stroke-width="1.51"/><path d="M147 480l73-5-3-25z" fill="#698683" stroke="#698683" stroke-width="1.51"/><path d="M119 319l4 77 20-77z" fill="#839f9e" stroke="#839f9e" stroke-width="1.51"/><path d="M70 427l53-31-107-36z" fill="#6e8489" stroke="#6e8489" stroke-width="1.51"/><path d="M220 475l164 53-82-50z" fill="#5f8681" stroke="#5f8681" stroke-width="1.51"/><path d="M710-36l-25-47-47 94z" fill="#5a717e" stroke="#5a717e" stroke-width="1.51"/><path d="M551 431l91 23-64-56z" fill="#384547" stroke="#384547" stroke-width="1.51"/><path d="M669 340l96 4-51-75z" fill="#425858" stroke="#425858" stroke-width="1.51"/><path d="M629 483l13-29-91-23z" fill="#313d3f" stroke="#313d3f" stroke-width="1.51"/><path d="M428 519l86 9-65-60z" fill="#466461" stroke="#466461" stroke-width="1.51"/><path d="M384 528h130l-86-9z" fill="#476964" stroke="#476964" stroke-width="1.51"/><path d="M69 34L27 78l62 30z" fill="#b1d5d9" stroke="#b1d5d9" stroke-width="1.51"/><path d="M-25 187l28 60 61-33z" fill="#97ced4" stroke="#97ced4" stroke-width="1.51"/><path d="M-36-20l63 98 42-44z" fill="#a5c6d2" stroke="#a5c6d2" stroke-width="1.51"/><path d="M514 528l36-10 1-87z" fill="#394d4d" stroke="#394d4d" stroke-width="1.51"/><path d="M123 396l21 53 58-86z" fill="#748d8d" stroke="#748d8d" stroke-width="1.51"/><path d="M629 483l36-34-23 5z" fill="#2d3a3b" stroke="#2d3a3b" stroke-width="1.51"/><path d="M642 454l23-5-31-99z" fill="#333f41" stroke="#333f41" stroke-width="1.51"/><path d="M550 518l79-35-78-52z" fill="#344444" stroke="#344444" stroke-width="1.51"/><path d="M144-87L68-50l61 34z" fill="#9ebfcf" stroke="#9ebfcf" stroke-width="1.51"/><path d="M27 78l-17 24 36 44z" fill="#a6d0d7" stroke="#a6d0d7" stroke-width="1.51"/><path d="M64 214L3 247l67-32z" fill="#9bd0d2" stroke="#9bd0d2" stroke-width="1.51"/><path d="M-39 94l49 8 17-24z" fill="#a2c9d3" stroke="#a2c9d3" stroke-width="1.51"/><path d="M829 213l-67-99-41 92z" fill="#5f8782" stroke="#5f8782" stroke-width="1.51"/><path d="M772 436l-7-92-96-4z" fill="#313d3f" stroke="#313d3f" stroke-width="1.51"/><path d="M-25 187l89 27-18-68z" fill="#9ed3d8" stroke="#9ed3d8" stroke-width="1.51"/><path d="M112 493l35-13-3-31z" fill="#6c8381" stroke="#6c8381" stroke-width="1.51"/><path d="M710-36l51-11-76-36z" fill="#506876" stroke="#506876" stroke-width="1.51"/><path d="M736 21l25-68-51 11z" fill="#5a717a" stroke="#5a717a" stroke-width="1.51"/><path d="M818 28l-57-75-25 68z" fill="#5d7479" stroke="#5d7479" stroke-width="1.51"/><path d="M818 28l-82-7 26 93z" fill="#6b8280" stroke="#6b8280" stroke-width="1.51"/><path d="M70 427l74 22-21-53z" fill="#728889" stroke="#728889" stroke-width="1.51"/><path d="M144 449l3 31 70-30z" fill="#6b8685" stroke="#6b8685" stroke-width="1.51"/><path d="M220 475l-108 18 272 35z" fill="#62847f" stroke="#62847f" stroke-width="1.51"/><path d="M765 344l15-9-66-66z" fill="#3f5655" stroke="#3f5655" stroke-width="1.51"/><path d="M795 343l-15-8-15 9z" fill="#364948" stroke="#364948" stroke-width="1.51"/><path d="M68-50l-26 6 27 78z" fill="#9cbece" stroke="#9cbece" stroke-width="1.51"/><path d="M67-85L42-44l26-6z" fill="#8fb1c8" stroke="#8fb1c8" stroke-width="1.51"/><path d="M144-87l-77 2 1 35z" fill="#92b4c9" stroke="#92b4c9" stroke-width="1.51"/><path d="M779-113L67-85l77-2z" fill="#81b9cb" stroke="#81b9cb" stroke-width="1.51"/><path d="M829 213l-108-7 18 43z" fill="#59837e" stroke="#59837e" stroke-width="1.51"/><path d="M3 247l-1 55 68-87z" fill="#8dbbc1" stroke="#8dbbc1" stroke-width="1.51"/><path d="M813 305l16-92-90 36z" fill="#4d706c" stroke="#4d706c" stroke-width="1.51"/><path d="M16 360l107 36-4-77z" fill="#799195" stroke="#799195" stroke-width="1.51"/><path d="M-39 94l14 93 35-85z" fill="#9ac7d2" stroke="#9ac7d2" stroke-width="1.51"/><path d="M10 102l-35 85 71-41z" fill="#9fced5" stroke="#9fced5" stroke-width="1.51"/><path d="M3 247l-87-15 86 70z" fill="#7faeba" stroke="#7faeba" stroke-width="1.51"/><path d="M780 335l33-30-74-56z" fill="#425d5b" stroke="#425d5b" stroke-width="1.51"/><path d="M772 436l23-93-30 1z" fill="#2d3a3b" stroke="#2d3a3b" stroke-width="1.51"/><path d="M772 436l-103-96-4 109z" fill="#2f3c3d" stroke="#2f3c3d" stroke-width="1.51"/><path d="M824 113l-6-85-56 86z" fill="#65817e" stroke="#65817e" stroke-width="1.51"/><path d="M795 343l18-38-33 30z" fill="#394d4c" stroke="#394d4c" stroke-width="1.51"/><path d="M-34 360l40-23-4-35z" fill="#6d8b97" stroke="#6d8b97" stroke-width="1.51"/><path d="M2 302l4 35 113-18z" fill="#7c9ca3" stroke="#7c9ca3" stroke-width="1.51"/><path d="M6 337l10 23 103-41z" fill="#77939a" stroke="#77939a" stroke-width="1.51"/><path d="M824 113l22-77-28-8z" fill="#657d7a" stroke="#657d7a" stroke-width="1.51"/><path d="M829 213l16-46-83-53z" fill="#5d847e" stroke="#5d847e" stroke-width="1.51"/><path d="M890 208l-45-41-16 46z" fill="#56827b" stroke="#56827b" stroke-width="1.51"/><path d="M31 503l81-10-42-66z" fill="#647a7d" stroke="#647a7d" stroke-width="1.51"/><path d="M70 427l42 66 32-44z" fill="#6d8483" stroke="#6d8483" stroke-width="1.51"/><path d="M147 480l-35 13 108-18z" fill="#698381" stroke="#698381" stroke-width="1.51"/><path d="M-55 22l16 72 66-16z" fill="#9fc3d0" stroke="#9fc3d0" stroke-width="1.51"/><path d="M834-44l-55-69-18 66z" fill="#465f6e" stroke="#465f6e" stroke-width="1.51"/><path d="M897 104l-51-68-22 77z" fill="#617d79" stroke="#617d79" stroke-width="1.51"/><path d="M710 509l-45-60-36 34z" fill="#293736" stroke="#293736" stroke-width="1.51"/><path d="M710 509l62-73-107 13z" fill="#283534" stroke="#283534" stroke-width="1.51"/><path d="M795 343l56-16-38-22z" fill="#374d4b" stroke="#374d4b" stroke-width="1.51"/><path d="M834-44l-73-3 57 75z" fill="#536c73" stroke="#536c73" stroke-width="1.51"/><path d="M761-47l18-66-94 30z" fill="#465f71" stroke="#465f71" stroke-width="1.51"/><path d="M685-83l94-30-186 21z" fill="#475f74" stroke="#475f74" stroke-width="1.51"/><path d="M593-92l186-21-269 19z" fill="#4a637a" stroke="#4a637a" stroke-width="1.51"/><path d="M510-94l269-19-408 20z" fill="#56758b" stroke="#56758b" stroke-width="1.51"/><path d="M371-93l408-20-635 26z" fill="#6fa0b3" stroke="#6fa0b3" stroke-width="1.51"/><path d="M550 518l160-9-81-26z" fill="#2a3737" stroke="#2a3737" stroke-width="1.51"/><path d="M775 529l-65-20-160 9z" fill="#243231" stroke="#243231" stroke-width="1.51"/><path d="M867 11l-33-55-16 72z" fill="#566e72" stroke="#566e72" stroke-width="1.51"/><path d="M-20-66l-16 46 78-24z" fill="#86a9c4" stroke="#86a9c4" stroke-width="1.51"/><path d="M42-44l-78 24L69 34z" fill="#98bacc" stroke="#98bacc" stroke-width="1.51"/><path d="M-6 421l34 28 42-22z" fill="#607780" stroke="#607780" stroke-width="1.51"/><path d="M-6 421l76 6-54-67z" fill="#647a84" stroke="#647a84" stroke-width="1.51"/><path d="M-34 360h50L6 337z" fill="#68828f" stroke="#68828f" stroke-width="1.51"/><path d="M866 368l-15-41-56 16z" fill="#304141" stroke="#304141" stroke-width="1.51"/><path d="M813 305l69-80-53-12z" fill="#4b706b" stroke="#4b706b" stroke-width="1.51"/><path d="M897 104l-30-93-21 25z" fill="#657c78" stroke="#657c78" stroke-width="1.51"/><path d="M-36-20l-19 42 82 56z" fill="#9abccd" stroke="#9abccd" stroke-width="1.51"/><path d="M-39 94l-37 83 51 10z" fill="#91c2d0" stroke="#91c2d0" stroke-width="1.51"/><path d="M67-85l-87 19 62 22z" fill="#86aac4" stroke="#86aac4" stroke-width="1.51"/><path d="M-36-20l-46 31 27 11z" fill="#8aadc6" stroke="#8aadc6" stroke-width="1.51"/><path d="M-25 187l-59 45 87 15z" fill="#89c0cc" stroke="#89c0cc" stroke-width="1.51"/><path d="M-123 141l47 36 37-83z" fill="#8bbacc" stroke="#8bbacc" stroke-width="1.51"/><path d="M851 327l31-102-69 80z" fill="#405d59" stroke="#405d59" stroke-width="1.51"/><path d="M846 36l21-25-49 17z" fill="#5e7575" stroke="#5e7575" stroke-width="1.51"/><path d="M-125 310l91 50 36-58z" fill="#668797" stroke="#668797" stroke-width="1.51"/><path d="M897 104l-73 9 21 54z" fill="#5d7f7a" stroke="#5d7f7a" stroke-width="1.51"/><path d="M-34 360l28 61 22-61z" fill="#607684" stroke="#607684" stroke-width="1.51"/><path d="M882 225l8-17-61 5z" fill="#548079" stroke="#548079" stroke-width="1.51"/><path d="M900 428l-10-220-8 17z" fill="#3f5d59" stroke="#3f5d59" stroke-width="1.51"/><path d="M-76 177l-8 55 59-45z" fill="#88c1cf" stroke="#88c1cf" stroke-width="1.51"/><path d="M-123 141l39 91 8-55z" fill="#82b9cc" stroke="#82b9cc" stroke-width="1.51"/><path d="M890 208l7-104-52 63z" fill="#5a807b" stroke="#5a807b" stroke-width="1.51"/><path d="M851 327l15 41 16-143z" fill="#3a5350" stroke="#3a5350" stroke-width="1.51"/><path d="M829 449l37-81-71-25z" fill="#283535" stroke="#283535" stroke-width="1.51"/><path d="M829 449l-34-106-23 93z" fill="#283535" stroke="#283535" stroke-width="1.51"/><path d="M-2 495l30-46-34-28z" fill="#59707a" stroke="#59707a" stroke-width="1.51"/><path d="M-2 495l33 8-3-54z" fill="#586f77" stroke="#586f77" stroke-width="1.51"/><path d="M28 449l3 54 39-76z" fill="#60767d" stroke="#60767d" stroke-width="1.51"/><path d="M112 493l-81 10 353 25z" fill="#65817d" stroke="#65817d" stroke-width="1.51"/><path d="M-55 22l-62 49 78 23z" fill="#95b9cc" stroke="#95b9cc" stroke-width="1.51"/><path d="M-109-73l27 84 46-31z" fill="#7ba0bf" stroke="#7ba0bf" stroke-width="1.51"/><path d="M867 11l1-62-34 7z" fill="#4e666e" stroke="#4e666e" stroke-width="1.51"/><path d="M834-44l9-70-64 1z" fill="#3d5768" stroke="#3d5768" stroke-width="1.51"/><path d="M897 104L868-51l-1 62z" fill="#5c7475" stroke="#5c7475" stroke-width="1.51"/><path d="M835 486l-6-37-57-13z" fill="#212f2d" stroke="#212f2d" stroke-width="1.51"/><path d="M868-51l-25-63-9 70z" fill="#415a68" stroke="#415a68" stroke-width="1.51"/><path d="M710 509l65 20-3-93z" fill="#22302e" stroke="#22302e" stroke-width="1.51"/><path d="M514 528l261 1-225-11z" fill="#293635" stroke="#293635" stroke-width="1.51"/><path d="M384 528l391 1-261-1z" fill="#314442" stroke="#314442" stroke-width="1.51"/><path d="M-67 455l65 40-4-74z" fill="#526a77" stroke="#526a77" stroke-width="1.51"/><path d="M-82 369l76 52-28-61z" fill="#587081" stroke="#587081" stroke-width="1.51"/><path d="M-117 71l-6 70 84-47z" fill="#8cb6ca" stroke="#8cb6ca" stroke-width="1.51"/><path d="M-125 310l43 59 48-9z" fill="#59768a" stroke="#59768a" stroke-width="1.51"/><path d="M-82 11l-35 60 62-49z" fill="#8eb1c8" stroke="#8eb1c8" stroke-width="1.51"/><path d="M-125 310l127-8-86-70z" fill="#7099ab" stroke="#7099ab" stroke-width="1.51"/><path d="M829 449l71-21-34-60z" fill="#243130" stroke="#243130" stroke-width="1.51"/><path d="M775 529l60-43-63-50z" fill="#1f2d2b" stroke="#1f2d2b" stroke-width="1.51"/><path d="M-82 369l15 86 61-34z" fill="#526a7a" stroke="#526a7a" stroke-width="1.51"/><path d="M-123 141l-2 169 41-78z" fill="#76adc1" stroke="#76adc1" stroke-width="1.51"/><path d="M-121 488l54-33-15-86z" fill="#476073" stroke="#476073" stroke-width="1.51"/><path d="M-20-66l-89-7 73 53z" fill="#779cbd" stroke="#779cbd" stroke-width="1.51"/><path d="M-82 11l-27-84-8 144z" fill="#7fa3c1" stroke="#7fa3c1" stroke-width="1.51"/><path d="M-117 71l8-144-14 214z" fill="#8baec6" stroke="#8baec6" stroke-width="1.51"/><path d="M67-85l-176 12 89 7z" fill="#789cbd" stroke="#789cbd" stroke-width="1.51"/><path d="M835 486l65-58-71 21z" fill="#1f2d2b" stroke="#1f2d2b" stroke-width="1.51"/><path d="M866 368l34 60-18-203z" fill="#314442" stroke="#314442" stroke-width="1.51"/><path d="M890 208l10 220-3-324z" fill="#4b706b" stroke="#4b706b" stroke-width="1.51"/><path d="M835 486l25 23 40-81z" fill="#1d2b28" stroke="#1d2b28" stroke-width="1.51"/><path d="M775 529l85-20-25-23z" fill="#1b2926" stroke="#1b2926" stroke-width="1.51"/><path d="M-67 455l-54 33 119 7z" fill="#476070" stroke="#476070" stroke-width="1.51"/><path d="M-2 495l-119-7 152 15z" fill="#4c6471" stroke="#4c6471" stroke-width="1.51"/><path d="M-125 310l4 178 39-119z" fill="#496279" stroke="#496279" stroke-width="1.51"/></svg>