<svg version="1" xmlns="http://www.w3.org/2000/svg" width="4180" height="4180" viewBox="0 0 3135 3135"><path d="M1542.8.5c-.2.2-6.5.6-14 .9-7.6.4-14.8.9-16 1.1-1.3.2-5.7.6-9.8 1-4.1.4-8.2.8-9.1 1-.8.1-4.2.6-7.5 1-3.2.4-6.8.8-7.9 1-6.7.9-11.6 1.7-16 2.5-2.7.5-6.6 1.2-8.5 1.5-1.9.3-4.2.8-5 1-.8.2-2.8.7-4.5 1-6.7 1.2-9.5 1.7-19.4 4.1-42.4 10-84.4 25.1-122.3 44.1-42 21-77.8 44.8-109.5 73l-8.1 7.3-8.4-2c-4.6-1-9.9-2.2-11.8-2.5-1.9-.3-6-1-9-1.5-6.9-1.2-18.2-2.8-25.1-3.5-3-.4-6.7-.8-8.4-1-16.4-2.4-78.2-2.4-92.5-.1-1.4.2-5.4.7-9 1-8.4.8-14.1 1.5-21.5 2.6-3.3.5-7.8 1.2-10 1.5-7.8 1.2-34.1 6.7-44 9.2-5.5 1.3-10.7 2.6-11.6 2.8-8.3 1.7-45.5 13.9-62.9 20.7-26.3 10.3-57.3 24.8-75.5 35.3-5.2 3-9.7 5.5-9.9 5.5-1.4 0-48.6 30.3-52.8 34-.7.6-3.8 2.9-6.8 5.1-37.3 27.2-79.2 66.5-106.5 100-27.1 33.1-48.3 65.5-65.9 100.4-6.8 13.7-14.3 29.5-14.7 31.3-.2 1.1-1.5 4.3-3.4 8.7-1 2.2-2.3 5.8-3.1 8-.7 2.2-3 8.9-5.1 14.9l-3.8 10.9-10 3.2c-146.7 47.6-278.5 179-342.8 342-9.2 23.3-17.8 50-23.7 73.5-3.3 13.2-10.4 48-11.5 56.5-.3 2.7-.8 6.1-1 7.5-1 6.8-1.5 11-2.1 16.5-.3 3.3-.7 7.1-.9 8.5-1 6.8-1.9 28.6-1.9 46.5 0 20.2.9 35.7 2.9 53.9.7 6.1 3.3 24.4 3.9 27.2.2 1.2.7 3.9 1 5.9.4 2.1 1.3 7 2.1 10.9 2 9.3 1.9 9.8-1.1 13.2-40.1 45.3-71 94.9-92.9 149-2 4.9-4 9.8-4.5 10.9-2.4 5.4-10.3 28.8-14.9 44-5.9 20-11.1 41.4-14.5 59.8-3.5 18.9-4 22.4-5 31.2-.4 3.3-.9 7.1-1.1 8.5-.9 5.2-2.1 16.9-3 29.5-.3 4.9-.8 11.5-1 14.5-.5 6.6-.5 56.4 0 63.5.2 2.7.6 9.3.9 14.5.4 5.2.9 11.1 1.1 13 .2 1.9 1 8.2 1.6 14 1.5 14.1 1.6 14.7 4.5 31.5 2.5 15.1 4.3 23.8 8 39.5 1.4 5.8 2.7 11.2 2.9 12 1.1 5.4 9.2 31.7 13.1 43 17.8 51.7 43.5 101.5 72.7 141 9 12.2 26.2 33.3 31.3 38.5l4 4.1-1.2 5.4c-1.3 5.4-4.9 25.8-5.9 33.2-.3 2.1-.7 5.3-1 7.1-.2 1.8-.7 6.2-1 9.8-.4 3.5-.8 7.5-1.1 8.9-1 6.4-1.7 24.4-1.7 44 .1 26.3 1 41.4 3.8 63.7 1.4 10.9 3.8 26.3 5 32.3.3 1.4.8 4.1 1.1 6 .3 1.9 1 5.5 1.6 8 .5 2.5 1.2 5.6 1.4 7 3.1 16.1 18.1 67.3 23.3 79.5.5 1.1 1.5 3.6 2.2 5.5 4.2 11.6 15.2 36.9 22.4 51.5 10.4 21.4 17.6 34.3 30 54.5 2.8 4.5 5.5 8.9 6 9.8 9.1 15.1 31.2 45 47.4 64.2 14.5 17.2 17 20 38.1 41 19.6 19.6 27 26.4 42.1 38.6 5.2 4.2 10.3 8.3 11.4 9.3 9.3 7.8 44.9 31.7 59 39.6 15.5 8.7 30.8 16.5 44.5 22.8 9.1 4.2 27.8 11.5 40.5 15.8l14 4.8 4.1 11.8c8.2 23.8 12.9 35.1 23.2 56.3 29.1 60 73 117.7 125.9 165.7 4.7 4.3 9.1 8.3 9.7 8.8 4.5 4.1 25.1 20.7 34.1 27.4 6.1 4.5 11.7 8.7 12.5 9.4.8.7 6.2 4.4 12 8.3 63.3 42.9 131.8 73.3 204 90.7 11.4 2.8 39.1 8.3 45.5 9.1 2.2.3 5.6.7 7.5 1 4.2.6 18.5 2.3 25.5 3.1 22.9 2.4 82.2 2.5 95.4 0 .9-.1 4.7-.6 8.4-1 3.7-.3 7.6-.8 8.6-1 1-.2 4.2-.6 7.2-1 3-.3 6.1-.8 6.9-1 .8-.2 3.1-.7 5-1 1.9-.3 5.5-1 8-1.5s5.6-1.2 7-1.4c1.4-.3 4.6-.9 7.2-1.4 4.5-.9 4.8-.8 8.5 2.7 2.1 2 7.9 7 12.8 11.2 64.4 54.4 146.9 93.5 236.7 112.3 14.1 3 20.1 4.1 26.8 5.1.8.1 3.1.5 5 .8 3.6.7 6.8 1.1 15.5 2.2 2.8.4 6.1.8 7.5 1.1 1.4.2 6.3.6 11 1s8.8.8 9.1 1c1.4.8 32.8 1.9 54.4 1.8 21.9 0 46.2-.9 53.9-1.9 1.7-.2 6.5-.7 10.6-1 4.1-.4 8.2-.8 9-1 .8-.1 4.2-.5 7.5-.9 5.9-.7 27.6-4.1 32.5-5.1 1.4-.3 4.8-.9 7.5-1.5 2.8-.5 5.9-1.1 7-1.4 1.1-.2 5.4-1.2 9.5-2.1 19.9-4.2 46.1-11.9 70.3-20.6 59.9-21.6 118.1-55.4 162.9-94.6 8.4-7.3 11.2-9.2 13-8.9 7.3 1.6 29.9 5.8 33.3 6.2 2.2.2 5.4.7 7 .9 1.7.3 5.5.7 8.5 1 3 .4 6.9.8 8.5 1 16.3 2.4 84.7 2.4 97 .1 1.1-.2 5.5-.7 9.8-1.1 4.3-.3 8.8-.8 10-1 1.2-.2 4.4-.6 7-1 2.7-.4 5.8-.8 7-1.1 1.2-.2 3.9-.6 6.2-.9 3.7-.5 5.1-.8 11.5-2 1.4-.3 3.9-.8 5.5-1.1 36.2-6.6 92-24.1 126.8-39.8 2.9-1.3 7.5-3.4 10.2-4.6 16.9-7.5 46.9-23.6 66.2-35.6 22.4-13.9 53.4-36 69.3-49.4 23.4-19.8 26.3-22.5 43.4-39.6 33.7-33.6 61-68.2 84.8-107.4 12.7-20.9 21.5-38.3 32.9-64.7 5-11.7 5.8-13.9 11.9-31.6l3.6-10.8 15.5-5.3c55.6-19 106.6-48.1 156.4-89 18.5-15.1 43.8-39.3 59.7-56.8 6.3-6.9 20.5-23.5 24.3-28.3 2.2-2.8 4.3-5.2 4.6-5.5.7-.6 13.7-17.7 15.9-21 .8-1.3 2.4-3.5 3.5-4.9 6.9-8.7 23.6-35 34.7-54.6 7.3-12.7 22.6-43.1 29.2-57.7 9.1-20.3 25.2-65.4 29.1-81.5.3-1 2-7.9 3.9-15.4 6.6-26.2 12-56 14.1-77.9.3-3.6.8-7.2 1-8 1.8-7.2 2.6-62.8 1.2-81.5-.6-8.2-2.3-22.6-5.2-44.7-.2-1.5-.6-3.5-.9-4.5-.3-1-.7-3.6-1.1-5.8-1.1-8.1-1.7-11.1-2.7-14.2-1.1-3.7-.7-4.6 4.2-10 32-34.6 65.4-87.4 86.1-136 14.6-34.3 28.8-78.6 34.5-107.8.2-1.1 1.3-6.5 2.4-12 2.5-12.9 2.9-15.2 3.6-20 .3-2.2.9-6.3 1.4-9 .6-2.8 1.2-7.5 1.5-10.5.3-3 .7-6.6 1-8 .2-1.4.7-6.1 1.1-10.5.3-4.4.8-8.8 1-9.7 1.8-9.8 2.5-74.7 1.1-95.8-1.2-17.2-2.7-31-5.2-48.8-.2-1.8-.7-5.2-1-7.5-.3-2.3-.8-5.6-1.2-7.2-.3-1.7-.7-3.7-.8-4.5-.1-.8-.5-3.1-.9-5-.3-1.9-.8-4.6-1-6-.2-1.4-1.1-5.5-2-9.3-.9-3.7-1.8-8.2-2.1-10-.9-5.1-5.4-22.4-8.1-31.7-1.5-4.6-2.7-9.1-2.9-10-1.3-6-13.6-41.1-17.6-49.7-1-2.4-1.9-4.5-1.9-4.8 0-1.2-14.2-31.7-19.2-41.2-18.4-35.3-41.3-69-65.9-97.2l-9.1-10.4 2.2-11.1c3.4-17.2 5.6-30.6 6.6-40.6.3-3.6.7-6.7.9-7 .9-1.5 2-27.6 2-47.5 0-19.7-1-44-2-49.4-.3-1.7-1.6-13-2-17.1-.1-1.4-.6-4.4-1-6.8-.4-2.3-.8-5.2-1-6.5-2.8-21.1-15.5-75.2-20.5-87.2-.4-1.1-2.9-8.3-5.5-16-20.1-59.7-51.9-119.7-91.9-173.5-9.6-12.9-18.2-23.9-19.5-25-.4-.3-2.6-3-5.1-6-14.2-17.2-36.1-39.7-57-58.4-53.4-47.9-110.7-81.9-175-104l-13.5-4.7-3.3-10.2c-31.6-97.2-102.9-192.2-197.2-262.4-16.3-12.1-52.6-36.3-54.5-36.3-.3 0-2.6-1.3-5.2-2.9-31.4-19.2-85.5-43.2-124.8-55.2-16.7-5.2-46.4-13-54.3-14.4-1.8-.3-6.3-1.2-10-1.9-3.7-.8-8.5-1.7-10.7-2-2.2-.4-4.7-.8-5.5-1.1-.8-.2-3.7-.6-6.5-1-2.7-.3-6.3-.8-8-1-35.2-5.3-88.5-6.6-123-3-11.6 1.2-19.9 2.3-27.5 3.5-3 .5-7.1 1.2-9 1.5-1.9.3-4.6.8-6 1-1.4.3-3.6.7-5 1-1.4.2-4.6.9-7.1 1.6l-4.7 1-12.3-10.6c-52.4-45.1-114.2-78.9-185.9-101.6-10.5-3.4-35-10.2-40.8-11.4-.9-.2-7.3-1.5-14.2-3-6.9-1.4-16.1-3.3-20.5-4-4.4-.7-9.3-1.6-11-1.9-7.6-1.3-30.6-4-43-5.1-3.3-.2-9.1-.8-13-1.1-6.8-.6-66.2-1.4-66.7-.9zm43.7 40.9c13.8.3 26.1.7 27.5 1 1.4.2 6.2.7 10.6 1.1 4.5.3 9.3.8 10.5 1 1.3.2 5.1.6 8.4 1 3.3.3 6.7.8 7.5 1 .8.2 3.3.6 5.5.9 3.5.4 18.2 2.9 24 4.1 1.1.2 4.4.8 7.4 1.4 23.6 4.7 64 16.8 88.1 26.4 42.1 16.7 78.8 37.2 113.6 63.4 13.9 10.4 14.3 10.9 10.7 11.8-1.6.3-4.1 1.2-5.8 1.9-1.6.8-8.4 3.5-15 6.2-43.8 17.6-91 47.7-128.4 81.9-7.4 6.7-29.2 28.6-35.4 35.5-19.9 22.2-42.4 53-59.3 81.4l-5.3 8.8 7.8 9.7c4.2 5.3 10.6 13.3 14.1 17.9l6.3 8.2 3.4-6.2c1.8-3.5 3.8-7 4.3-7.8.6-.8 1.6-2.6 2.2-4 7.6-15.3 37.5-58.2 52.1-74.8 1.8-2 5.2-5.9 7.6-8.7 2.5-2.7 10.6-11.1 18-18.6 44.5-44.5 95.5-75.9 156.1-96.1l14.5-4.8 8.9 9.2c36.6 38.4 66.9 90.4 85 146.3 5.5 17.1 11.6 41 13.2 51.3.3 2 .7 4.4.9 5.2.4 1.4.7 3.4 2 11 1.9 11.8 4.1 33.1 5 48.5.6 9.3.6 49.2 0 58-1 16.2-1.6 25.1-2 26.5-.2.8-.7 5.1-1 9.4-.4 4.3-.8 8.7-1 9.6-.2.9-.6 4.1-1 7-.4 2.9-.8 6-1 6.9-.3 1.8-1.4 9-2.1 13.6-.2 1.6-.7 4.1-.9 5.5-.3 1.4-.8 3.6-1 5-.3 1.4-1.2 6.1-2.1 10.5-.8 4.4-1.8 9.1-2 10.5-.3 1.4-2.5 10.6-4.9 20.5-15.1 62.4-39.4 128.5-73.1 199.3l-6.3 13.3 12 22.2c6.6 12.2 12.3 22.5 12.7 22.9.4.4 6.6-8.1 13.8-19 20.9-31.4 40.1-57.9 60.2-83.2 10.1-12.7 26.6-32.6 28.2-34 .3-.3 2-2.3 3.9-4.5 16.1-19 55.9-59.2 75.6-76.4 66.8-58.4 137.3-99.4 204.8-119 10.3-3 32.1-8.6 36.7-9.4 1.4-.3 6.3-1.2 11-2.1 4.7-.8 10.5-1.8 13-2.1 5.9-.7 12.9-1.6 16-2.1 15.4-2.4 61.5-2.4 82.5 0 1.1.2 4.9.6 8.5 1 5.6.7 24.5 3.8 30.5 5 10.9 2.3 15.7 3.4 16 3.7.3.4 4.9 20.4 6 26.4.7 3.8 2.4 15.8 3.1 21 .3 2.2.7 5.8 1 8 1.8 15.4 2.4 49.2 1.1 69.3-2.3 35.7-11.7 79.6-24.7 114.8-5.7 15.4-15.1 37.6-16.8 39.6-.8 1-1.2 1.8-.9 1.8 1.3 0-14.3 28.9-26.6 49.5-6.8 11.3-27.8 41.9-35.4 51.5-8.1 10.3-20.3 25.3-23.1 28.5-23.5 26.9-53.6 57.6-74.6 76-.6.5-4.7 4.2-9.1 8.1-9.8 8.6-31.4 26.6-37.7 31.4-1.1.8-3.4 2.7-5.2 4.1-21.8 17.9-71.7 52.9-108.6 76.1-19.7 12.4-48.9 29.8-50 29.8-.6 0-1 .5-1 1.1 0 1.3 19 34.9 19.7 34.9.3 0 4.4-2.2 9.2-4.8 4.7-2.7 11.3-6.4 14.6-8.2 3.3-1.8 7.4-4 9-5 18.9-11 66.5-34.5 103-51 34.6-15.6 92-36.6 128.5-47 13.6-3.9 43.5-11.6 49-12.6 1.4-.2 3.6-.7 5-1 1.4-.3 3.4-.8 4.5-1 1.1-.2 6.5-1.3 12-2.4 16.5-3.3 41.2-7 57.5-8.5 3.6-.4 7.6-.8 9-1.1 11.5-1.8 68.1-2.6 88-1.2 12.2.9 38.2 3.8 46.5 5.3 8.7 1.6 24.7 4.8 30 6.1 3.3.8 6.7 1.6 7.5 1.8 38.2 9.1 85.1 29.4 119.8 51.9 17.3 11.3 40.3 29.1 53.5 41.6 2.7 2.5 5.3 4.7 5.8 4.9 1.8.7.9 5-4.2 20.3-33.3 100.2-104.4 180.6-209.9 237.3-18.6 10.1-41.1 20.6-59 27.8-4.1 1.7-8.6 3.5-10 4.1-1.4.5-2.9 1.1-3.5 1.3-.5.1-5 1.8-10 3.7-22 8.4-59.9 20-81.6 25.1l-8 2c-18.4 4.4-39.8 9-51.7 11.1-14.2 2.4-33.6 5.5-37.2 6-2.5.3-5.6.8-7 1-2.5.4-5.4.8-14.5 2-2.7.3-6.6.8-8.5 1-1.9.3-5.7.7-8.5 1-2.7.3-7.2.7-10 1-10.6 1.3-12.2 1.4-19.5 2-4.1.3-9.5.8-12 1-2.5.3-8.8.7-14 1.1-5.2.3-12 .7-15 .9-13.1.8-37.2 1.7-58.4 2-12.5.2-23 .6-23.2.8-.5.5 13.5 37.8 14.7 39.1.4.5 7 1 14.6 1.1 19.7.4 45.3 1.5 67.8 3 16.3 1.1 20.5 1.4 24.8 1.9 2.3.3 7.4.8 11.2 1.1 3.9.3 8.1.8 9.5 1 1.4.2 5.4.7 9 1 3.6.4 7.9.8 9.5 1 1.7.2 5.5.6 8.5 1 3 .3 6.6.8 8 1 1.4.2 4.3.7 6.5 1 59.2 8.4 116 21.5 165.5 38.3 16.6 5.7 29.1 10.2 33.5 12.1 1.1.5 8.8 3.7 17 7.1 80.4 33.4 148.3 82.6 194.6 141 11.3 14.2 30.9 42.6 30.9 44.8 0 .6.3 1.2.8 1.4 1.1.5 5.7 8.9 14.7 27.3 9.4 19.3 13.6 29.6 20.7 51l5 15-7.9 7.3c-7.8 7.3-26.2 22.4-35.9 29.4-50 36.3-112.2 61.5-175.7 71.4-5.6.8-11.2 1.7-12.5 1.9-1.3.2-5.3.7-9 1-3.7.4-7.8.8-9.2 1.1-14.9 2.4-85.7 2.4-102-.1-1.4-.2-5.6-.6-9.3-1-3.7-.3-7.6-.8-8.6-1-1-.2-4.4-.6-7.7-.9-3.2-.4-6.8-.9-7.9-1.1-1.1-.2-4.2-.7-7-1.1-7.7-1-8.4-1.1-18-2.9-4.9-1-10.1-1.9-11.5-2.1-22.1-3.7-73.5-17.6-108-29.4l-19.5-6.7-.3 11.6c-.1 6.4-.4 16-.6 21.3l-.4 9.8 20.1 6.5c11.1 3.6 21 6.7 22.2 7 1.1.2 6.7 1.8 12.5 3.5 16.8 4.9 52 13.5 64 15.6 1.4.2 3.5.7 4.8.9 1.3.3 6.2 1.2 11 2.1 15.2 2.6 18.2 3.1 24.2 3.9 2.5.3 5.6.8 7 1 1.4.2 4.8.7 7.5 1 2.8.3 6.6.7 8.5 1 19 2.2 46.2 3.7 68.7 3.7 17 .1 43-.9 48.3-1.7 1.4-.2 5.7-.6 9.5-1 11.6-1 15.6-1.5 25.5-3.1 13.5-2.1 14.7-2.3 22.5-3.9 3.9-.8 8.1-1.6 9.5-1.9 2.2-.4 9.1-1.9 14-3.1 46.6-11.4 95.6-32.6 135-58.4 14.9-9.7 35.4-25 43.5-32.3 2.4-2.3 3.1-1.3 4 6.2.3 3 1 8.4 1.5 12 3.2 23.6 3.5 87.7.5 101.5-.3 1.1-.7 4.7-1 8-1.2 14.6-5.7 40.1-11 62.5-6.5 27.3-20.6 69-32.3 95.5-5.3 11.9-22.3 45.6-27.2 53.9-2.7 4.6-5 8.9-5 9.5 0 .5-.3 1.1-.7 1.3-.5.1-2.6 3.2-4.7 6.8-6 9.8-19.1 29.4-26.5 39.5-7.2 9.9-24.3 31.7-26.9 34.4-.9.9-4.6 5.1-8.2 9.2-3.5 4.1-13.6 14.6-22.5 23.4-34.3 34.4-69.3 61.2-109.4 83.9-10.3 5.9-36.7 19.1-40.1 20.1-1.4.4-2.9 1.1-3.5 1.5-1.6 1.2-18.8 8-19.2 7.6-.3-.2.5-6.4 1.6-13.7 1.1-7.4 2.3-16.1 2.6-19.4.4-3.3.8-7.1 1-8.5 2.9-20 1.6-81.6-2-99.6-.3-1.1-1.1-6.5-2-12-5.1-33.2-18.1-78.9-30.5-106.9-14.9-33.5-24.2-51.7-39.8-77-19.7-32.2-47.6-68.9-76.6-101-19.7-21.9-63-63.8-77.8-75.5l-2.8-2.1-.1 3.3c-.1 1.8-.3 4.2-.4 5.3-.1 1.1-.5 6.7-.9 12.4s-.9 11.1-1.1 12c-.1.9-.6 5.2-1 9.6l-.6 8 6.3 5.7c26.3 23.5 60.2 60.7 85.1 93.1 46.6 60.6 80.6 129.5 94.2 190.7.2.8.8 3.5 1.4 6 .5 2.5 1.2 5.6 1.4 7 .3 1.4.8 3.6 1.1 5 .8 3.5 1.5 7.7 2.2 13.5.4 2.7.8 5.3 1 5.6.2.4.6 3.7 1 7.5.3 3.8.7 7.5.9 8.1 2.3 7.1 2.3 75.5.1 82.5-.3.7-.7 4-1 7.3-.9 9-4.6 29.9-7 39.5l-2.1 8.5-9.5 2.2c-9.8 2.2-29.6 5.8-38.5 6.9-2.7.3-6.1.7-7.5.9-18.1 2.5-60.6 2.5-83 0-3.4-.4-27.1-3.9-34-5.1-13.5-2.2-57.1-14.4-67.5-18.9-1.6-.7-8.4-3.4-15-6-20.7-8.3-50.5-23.1-68-34-2.2-1.4-4.9-2.9-6-3.5-1.1-.5-5.4-3.2-9.5-6-4.1-2.7-8.9-5.8-10.7-6.9l-3.1-1.9-4.8 6.1c-2.7 3.4-5.1 6.4-5.4 6.7-.3.3-2.1 2.5-4.1 5-2 2.5-5.3 6.3-7.2 8.5-2 2.2-3.7 4.3-3.7 4.7 0 .9 18.6 13.1 33.5 22 43.2 25.8 89.2 45.4 134.5 57.2 7.4 1.9 15 3.8 16.9 4.1 1.9.3 3.7.8 4 1 .4.2 2.7.6 5.1 1 2.5.3 6.1 1 8 1.5 3.2.8 20.3 3.3 30.5 4.5 24.1 2.8 80.2 2.8 96.5 0 1.4-.3 5.2-.7 8.5-1.1 3.3-.3 10.4-1.4 15.8-2.3 7-1.3 9.7-1.4 9.7-.6 0 1.2-3.1 9.1-8.2 21-1.6 3.8-6.5 14-10.8 22.5-56.8 113.5-166 210-294 259.7-28.2 11-66.8 22.5-89.5 26.7-1.1.2-4.7.9-8 1.5s-6.9 1.3-8 1.5c-1.1.2-4 .7-6.5 1.1-2.5.4-5.2.9-6 1-1.8.3-9.9 1.4-16 2.1-2.5.3-5.8.7-7.5.9-1.6.2-7 .7-12 1.1-4.9.3-10.8.8-13 1-5.8.4-50.4.4-54 0-1.6-.2-7.2-.7-12.2-1.1-5.1-.3-10.3-.8-11.5-1-1.3-.2-4.8-.6-7.9-1-3.1-.3-6.7-.8-8-1-1.3-.3-3.6-.6-5.1-.7-3.2-.3-3.3-.4-1.5-2.3.6-.7 1.9-2.1 2.7-3.1 10.3-12.8 14.4-18.1 19.1-24.4 25.9-35.1 48.1-78.8 62.6-123 4.3-13.1 11.4-39.4 12.8-47.5.4-2.2.9-5.1 1.1-6.5.3-1.4.9-4.1 1.4-6 .4-1.9 1.2-6 1.6-9 .4-3 .8-5.7.9-6 .1-.3.5-3.4 1-7s.9-6.7 1-7c.1-.5 1-8.7 2-19 1-9.5 1.6-21.1 2-38.3.3-13.6.1-17.6-.8-17-.7.4-5.2 3.9-10.2 7.8-6.9 5.4-21.4 16.4-29.4 22.1-.2.2-.5 2.7-.6 5.6-.4 6.5-1.5 20.4-2 23.8-.2 1.4-.6 5-1 8s-.8 6.6-1 8c-.2 1.4-.7 4.5-1 7-1 6.9-6.3 33.3-8.1 39.8-.8 3.1-1.7 6.5-1.9 7.5-.2 1-1.6 5.7-3 10.5-15.1 50.3-38 94.7-69.1 133.7-5.7 7.1-12 14.8-14 17-9.5 10.5-13.6 14.4-14.7 14-9.5-2.9-24.7-7.8-26.2-8.5-1.1-.4-4.9-1.9-8.5-3.3-11-4.2-16.9-6.9-32.5-14.6-47-23.3-90.2-57.2-126.5-99.4-9.6-11.2-6.7-10.4-25.5-6.9-5.5 1.1-13.7 2.5-18.2 3.2-4.6.8-8.8 1.7-9.4 2.1-.8.4 1.2 3.6 5.7 9 16.7 20.6 21.8 26.3 38.4 42.9 47.1 47.2 99.8 81.6 159.4 104l10 3.7-8.8 6.9c-32.7 25.8-76.2 50.4-118.6 67.2-7.1 2.8-35.8 12.9-39 13.7-.8.3-7.1 2-14 3.9-28.6 8.1-59.8 14.2-88 17.1-3.6.4-7.3.9-8.3 1.1-1 .2-6.6.6-12.5.9-5.9.3-12.3.8-14.2 1.1-9.1 1.2-64.2.5-78-1.1-2.5-.2-7.6-.7-11.5-1-3.8-.3-8.7-.8-10.7-1-6.3-.8-12.2-1.6-14.8-2-1.4-.2-4.5-.7-7-1-7.1-1-10-1.5-17.7-3-3.9-.8-8.9-1.8-11-2.1-2.1-.3-4.1-.8-4.4-1-.3-.2-1.9-.6-3.5-.8-6-1.2-25.1-6.1-36.9-9.6-3.8-1.1-7.7-2.2-8.5-2.4-5.2-1.4-34.4-12.1-44.5-16.4-13.7-5.7-32.8-14.9-46-21.9-8.7-4.7-27.9-15.9-30-17.6-.5-.4-6.7-4.7-13.7-9.5-6.9-4.8-16.5-11.8-21.3-15.6l-8.8-6.8 13.9-5.3c7.7-2.9 17.3-6.8 21.4-8.6 12-5.3 39.1-19.3 48-24.8 4.5-2.8 8.3-5.1 8.5-5.1 1.5 0 34.2-23.3 42-29.9 1.7-1.4 5.1-4.2 7.5-6.1 13.7-11 37.7-34.6 51.4-50.5 15.4-17.9 22.9-27.5 22.2-28.2-.7-.7-2.4-1.1-6.6-1.7-1.4-.2-9.5-1.6-18-3.1s-16.6-2.9-18-3.1c-2-.3-3.2.5-6.3 4.3-9.8 12.1-31.4 34.8-43.2 45.3-7.7 6.9-16.4 14.2-18.8 15.9-1.2.8-3.1 2.3-4.1 3.3-4.2 3.9-25.5 18.5-37.6 25.8-15.3 9.2-41.1 22.1-56.5 28-6 2.4-11.9 4.7-13 5.1-1.1.4-7.4 2.5-14 4.5l-11.9 3.7-7.9-8.4c-23.8-25.3-46.4-57.9-62-89.4-12.6-25.3-19-41.5-28-71-3.2-10.5-9.8-39.7-11.2-49.5-.3-2.5-1-7-1.5-10s-1.2-8.2-1.5-11.5c-.4-3.3-.8-7.6-1.1-9.5-.2-1.9-.6-7.6-1-12.5-.3-5-.6-9.9-.7-11-.1-1.2-5.3-5.8-14.2-12.5-7.7-5.8-17-12.9-20.6-15.7l-6.6-5.3.3 13.8c.3 13.8 1.2 34.2 1.9 39.7.2 1.6.6 6.2.9 10.1.4 3.9.8 8 1 9 .2 1.1.7 4.6 1.1 7.9 1.3 10.8 4 26 6.2 35.5.8 3.6 1.6 7.2 1.8 8 2.9 14.2 9.7 37.3 16.2 55 18.4 50.3 44 94.1 78 133.9 1.9 2.2 3.4 5.5 1.7 3.9-.3-.4-1.8-.3-3.4.2-1.5.4-6.1 1.1-10.2 1.5-4 .4-7.5.8-7.8 1-.3.2-5.2.6-11 1s-12.3.9-14.5 1.1c-5.8.4-49 .4-55.5-.1-16.3-1.2-23.3-1.9-36.5-3.6-13.4-1.7-14.6-1.9-27.5-4.4-6.9-1.3-13.8-2.6-15.5-2.9-7.2-1.3-36.2-9-49.5-13.2-50.1-15.8-101.6-40.4-145.6-69.5-9.9-6.6-33-23.1-37.9-27.1-1.1-.9-6.7-5.6-12.5-10.3-47.7-39.4-87.3-85.1-118.5-137-11.8-19.6-34.5-67.1-34.5-72 0-1 .8-1.1 3.3-.5 1.7.5 5.2 1.1 7.7 1.4 2.5.3 5.4.8 6.5 1 1.1.2 4.9.7 8.5 1.1 3.6.4 6.7.8 7 1 1.8 1 26.4 2 48.5 2 28.3 0 48.7-1.3 64.5-4 1.4-.3 3.9-.7 5.5-.9 20.3-3.2 42.5-8.5 64.5-15.3 12.3-3.7 40.8-14 42.5-15.3.6-.4 2.1-1.1 3.5-1.5 3.2-1 11.2-4.6 27-12.3 22.2-10.9 39.7-20.8 62.8-35.9l11.3-7.3-2-2.8c-1.1-1.5-3.4-4.3-5.1-6.2-1.7-1.9-6.5-7.8-10.7-13.1l-7.7-9.6-5 3.3c-40 26.1-77.4 44.7-117.5 58.5-8 2.7-15.4 5.1-16.5 5.4-1.2.2-6.1 1.6-11.1 3-9.7 2.7-27.9 6.7-38.5 8.4-3.6.6-7.4 1.3-8.5 1.5-1.1.2-4.9.7-8.5 1.1-3.6.4-7.6.9-9 1-19 2.5-60.3 2.5-82 0-1.9-.2-5.7-.7-8.5-1-2.7-.3-5.7-.7-6.5-1-.8-.3-3.5-.7-6-1-3.7-.5-14-2.5-31.3-6.2-3.5-.7-4-1.9-7.1-17.5-5.7-28.6-7.9-51.1-8-79.8 0-12.5 1-35.7 1.8-39.5.2-1.1.7-5.2 1.1-9 .4-3.9 1.6-12.2 2.7-18.5 1.1-6.3 2.2-12.4 2.4-13.5 1.6-9.5 7.8-32.8 13-48.6 13.5-41.4 33.8-82.4 61.7-124.4 7-10.5 24.9-35 30.5-41.7 1.1-1.2 5.5-6.6 9.8-11.8 18.4-22.3 45.9-51.3 68.3-71.8 5.2-4.8 5.3-5 4.7-9.3-.3-2.4-.8-6.9-1.1-9.9-.3-3-.8-7.2-1-9.2-.2-2-.7-8.5-1.1-14.5-.3-5.9-.8-11-1-11.2-1.6-1.7-54 48.3-76.9 73.3-4.9 5.4-9.5 10.4-10 11-.6.6-5.9 6.8-11.8 13.9-60.1 71.5-100 146-119.8 223.5-4 15.5-9.1 42.3-10.4 54.2-.4 3.6-.9 7.4-1.1 8.4-1.9 10.1-2.6 65.2-1.1 83.4.8 9.9 3.5 31.7 4.2 34.2.2.8.7 3.7 1.1 6.5.3 2.7.8 5.4 1.1 5.9.6.9-2.8.1-7.2-1.9-2.9-1.3-7.7-3.3-14-5.8-1.6-.6-11.3-5.3-21.5-10.4-19.7-9.8-34.2-18.2-50.8-29.4-5.7-3.8-10.7-6.9-11.2-6.9s-1-.3-1.2-.8c-.1-.4-4.7-4-10.1-8-5.4-4.1-10.6-8-11.5-8.7-38.4-31.3-68.9-62.6-97.3-100-14.8-19.6-33.1-47.7-45.3-69.5-5.1-9.3-19.9-38.8-21.8-43.5-.9-2.2-3-6.9-4.6-10.5-5.6-12.3-20.1-51.9-22.7-62-.2-.8-2-7.4-3.9-14.5-4.4-16.2-10.9-45.6-12-54.5-.3-1.9-.7-5.1-1.1-7.1-.3-2-.7-5.1-1-7-.7-6.5-1.6-14.4-2-17.6-1.9-13.6-2.6-60.3-1.2-78.8 1.3-17.7 2.8-31.8 4.3-39.7.6-3 1.9-2.8 5.9.9 7.5 6.8 34.1 26.3 46.3 33.9 22 13.6 45.5 25.7 66.7 34.4 7.2 2.9 13.9 5.6 15 6.1 2.3 1 25.9 8.9 28.3 9.4.9.3 5.1 1.4 9.2 2.6 10 2.8 30.5 7.7 35.5 8.4 2.2.4 5.6 1 7.5 1.5 1.9.5 6 1.2 9 1.5 3 .4 5.7.8 6 1 .3.2 3.2.6 6.5 1s7.6.9 9.5 1.1c1.9.2 6.2.6 9.5.9 3.3.3 6.9.7 8 1 9.7 2.1 83.5 2.1 94.5 0 1-.2 5.6-.6 10.3-1 4.7-.3 9.5-.8 10.7-1 1.2-.2 4.9-.7 8.3-1 3.5-.3 7.1-.7 8.2-.9 1.1-.2 4.3-.7 7-1 13.7-1.9 39.8-6.7 58-10.7 10.4-2.3 9-2 22-5.3 27.8-7 75-21.4 78.2-23.8.6-.5 1-2 .7-3.3-.3-1.9-.9-16.6-1.3-36.8-.1-2.4-.4-2.6-2-1.8-2.1 1.2-43.5 15.1-46.5 15.7-1.1.2-4 1-6.5 1.8-4.5 1.5-33.2 9.3-36.8 10.1-1 .2-7.6 1.7-14.8 3.3-18 4.2-38.6 8.1-53.7 10.2-4 .6-8.4 1.2-9.8 1.5-3.5.5-10.3 1.3-18.5 2.1-3.8.3-8.1.8-9.5.9-21.1 2.6-88 2.5-101.3-.1-.9-.1-4.3-.5-7.5-.8-15.5-1.5-32.1-4.5-61.2-11.1-.8-.1-6.3-1.7-12.1-3.4-35.2-10.2-67.7-24.4-97.5-42.3-12.3-7.5-33.8-22.2-40.8-28-12.8-10.6-19.7-16.6-24.7-21.3l-5.6-5.2 5.2-15.9c19.9-60.5 50.8-110.6 96.5-156.5 8-8 16.5-16.3 19-18.5 64.5-56.9 151.3-99.7 256.5-126.3 14.1-3.6 35.2-8.4 42.5-9.7 1.4-.3 3.2-.7 4-.9.8-.2 3.1-.7 5-1 1.9-.3 9.4-1.7 16.5-3 7.2-1.3 15-2.7 17.5-3.1 2.5-.3 5.2-.8 6-.9.8-.2 3.8-.6 6.5-.9 2.8-.4 6.1-.9 7.5-1.1 5.8-.9 16-2.3 22-2.9 14-1.7 29.4-3.2 40-4.1 3.6-.3 8.1-.7 10-1 1.9-.2 8.5-.7 14.5-1 6.1-.3 13.5-.8 16.5-1 10.5-.8 34.6-1.7 56-2 11.8-.2 22.5-.4 23.8-.5h2.2l-.2-20.1-.3-20-23.5-.4c-23.2-.4-41.4-1-58-2-4.7-.3-12.3-.8-17-1.1-4.7-.2-10.5-.7-13-.9-2.5-.3-8-.7-12.2-1.1-4.3-.3-9-.7-10.5-.9-1.6-.2-5.9-.6-9.8-1-3.8-.3-8.1-.8-9.5-1-1.4-.2-5-.7-8-1-5.4-.5-11-1.2-16-2-1.4-.2-6.1-.9-10.5-1.5-4.4-.7-8.8-1.4-9.9-1.6-1-.2-4.4-.6-7.5-1-3.1-.3-5.8-.8-6.1-.9-.3-.2-2.4-.6-4.6-.9-3.9-.6-6.2-1-11.4-2.1-1.4-.2-3.8-.7-5.5-1-6.4-1-23.6-4.6-34-7-3.3-.8-7.1-1.6-8.5-1.9-4.8-.9-33.7-8.5-36.6-9.6-1.6-.6-3.1-1.1-3.4-1.1-2.7.2-59.5-18.7-68.5-22.8-1.1-.6-9.2-4-18-7.6-16.3-6.8-51.6-24-56.6-27.6-1.5-1-3-1.9-3.2-1.9-1.4 0-21.8-12.5-36.2-22.2-27.8-18.6-42.6-30.8-67.1-55.3-38.6-38.4-67.7-81.9-87.7-131-4.2-10.2-12.7-35.2-12.7-37.2 0-1.1-.5-2.4-1.1-3-1.4-1.4 4.9-7.4 24.6-23.7 16.8-13.9 37.1-27.7 58.3-39.6 9.1-5 35.5-18 36.7-18 .7 0 2.1-.6 10.6-4.4 8-3.5 44.5-15.1 53.9-17.1.8-.2 4.5-1 8.1-1.9 8.3-1.9 9.8-2.2 23.4-4.5 29.3-5.1 48.6-6.6 83.5-6.6 21.7.1 46.5 1 51.7 1.9 1 .2 5.4.7 9.8 1 4.4.4 8.7.9 9.5 1.1.8.2 4 .6 7.1 1 3.1.3 6.5.7 7.5.9 1.1.2 3.9.7 6.4 1 2.5.3 8.3 1.3 13 2.1 4.7.9 9.6 1.8 11 2 1.4.2 7 1.3 12.5 2.5s11.1 2.4 12.5 2.6c21.8 4.2 71.5 18.9 105 30.9 62.7 22.5 140.8 59.1 199.9 93.7 3.6 2.1 6.9 3.8 7.2 3.8.6 0 3.3-4.4 8.3-13.5.7-1.1 2.4-3.9 3.9-6.2 1.5-2.4 2.7-4.5 2.7-4.7 0-.3 1.3-2.7 2.9-5.4l2.8-4.9-12.6-7.3c-75.2-44.1-145.2-94.6-203.5-147-20-18-50-48.6-67.1-68.5-3.3-3.9-6.3-7.2-6.6-7.5-1.4-1.2-21.3-26.5-27.7-35.2-17.5-23.8-39.1-58.5-48.6-78.3-1.3-2.8-4.6-9.7-7.4-15.5-2.8-5.8-7.3-16.4-10.2-23.5-2.8-7.2-5.5-13.8-6-14.7-.6-1-1-2.5-1-3.3 0-.8-.4-2.3-1-3.3-2.4-4.2-12.8-41.9-15.5-55.7-1.5-8.3-4.6-28.2-5.1-32.8-.3-2.9-.7-6.3-.9-7.7-2.3-13-2.3-62.6 0-80.5.2-1.7.6-5.5 1-8.5.3-3 1-8 1.5-11s1.2-7 1.5-8.8c.3-1.8 1.2-6.4 2-10.2.8-3.8 1.7-8.3 2-9.9 1.2-6.7 2.1-7.7 7.7-8.9 18-3.9 33.5-6.7 43.3-7.8 3.3-.3 6.8-.8 7.8-1 4.9-.9 24.1-1.8 39.2-1.8 21.5 0 35 .8 54.5 3.5 12.7 1.8 14.4 2 18.5 2.9 2.2.5 5.4 1.1 7 1.4 4.8.9 11.8 2.5 22.5 5.1 13.2 3.3 38.5 11.7 56 18.7 12.4 5 45.4 20.8 56 26.9 10.1 5.7 22.5 13.1 26.5 15.8 2.2 1.4 4.7 3 5.6 3.6 18.7 11.9 53.3 38 68.4 51.5 2.8 2.5 8.4 7.4 12.5 11 10.9 9.5 46.9 45.3 58.5 58.1 5.5 6.2 10.5 11.7 11 12.3 11.6 12.5 36.3 43.2 53.5 66.3 7.7 10.4 14.4 19.3 14.8 19.8 7.5 9.2 53.4 79.6 63.1 96.8 6.5 11.4 12.3 20.7 13 20.7.9 0 32-17.7 33.5-19.1.5-.4-.6-3.3-2.4-6.6-5.8-10.1-19-34.3-25.6-46.7-5.7-10.6-24.1-47.6-29.4-59.1-6.6-14.4-7.7-16.8-9.3-20.5-4.1-9.4-9.9-22.8-10.9-25-6.7-15.4-18.6-47.2-27.3-73.5-6.2-18.7-15-47.3-16-52.5-.2-.8-1.2-5.1-2.4-9.5-6.1-24-12.4-56.8-15.6-80.5-.3-2.5-.8-5.6-1-7-.2-1.4-.7-5.7-1.1-9.5-.3-3.9-.8-8.6-1-10.5-2.6-26.5-2.6-82.5.1-104.5.2-1.7.6-5.5 1-8.5.3-3 .8-6.6 1-8 .2-1.4.7-4.3 1-6.5.9-6.6 1.6-10.6 3.2-18.5.8-4.1 1.7-8.6 1.9-10 2.4-12.4 12.4-47.6 15.9-55.5.7-1.7 1.8-4.6 2.5-6.5.7-1.9 1.8-4.9 2.5-6.5.7-1.7 2.5-5.9 4-9.5 3.9-9.4 16.5-34.4 21.3-42.4 2.3-3.7 4.2-7 4.2-7.2 0-.2 4-6.4 9-13.6 10.5-15.7 22-30.2 35.4-45.1 11.4-12.6 8.3-12.1 29.6-5 73.2 24.4 139.7 72.8 189.3 137.8 4.2 5.5 8.1 10.5 8.6 11.2 2.4 2.8 19.4 28.8 24.9 38 24.6 41.2 47.5 93.3 61.6 140.2l2.3 7.5 6.6-20c3.6-10.9 8.3-26.3 10.5-34.1l3.9-14.3-1.8-5c-7.9-22.6-31.1-69.6-46.8-95.1-.9-1.5-3.1-5.1-4.8-8.1-7.7-13-29.5-42.7-43.6-59.5-8.6-10.2-34.9-37.2-45.7-46.8-31.8-28.4-77.1-57.6-114-73.5-4.1-1.8-9.3-4-11.5-5-2.2-1-8.6-3.5-14.2-5.5-5.7-2.1-10.3-4.2-10.3-4.6 0-1.1 18.4-15.2 31.5-24.1 11.2-7.6 28.9-18.8 29.8-18.8.3 0 3.9-2 7.9-4.4 32.9-19.4 92.1-41.9 134.8-51.1.8-.2 4.7-1.1 8.5-2 3.9-.9 8.6-1.8 10.5-2.1 1.9-.3 6.7-1.2 10.5-1.9 5.9-1.2 12.9-2.2 19.5-3 .8-.1 3.3-.5 5.5-.8 4-.7 7.9-1.1 20.5-2.2 3.6-.4 7.9-.8 9.5-1 1.7-.3 10.2-.8 19-1.1 8.8-.3 16.1-.7 16.3-.9.1-.1 1.2-.1 2.5.1 1.2.2 13.5.5 27.2.8zm-484.5 128c8.5.3 16.6.8 18 1 1.4.3 5.7.8 9.5 1.2 3.9.4 7.7.8 8.5.9.8.1 4.1.5 7.3 1 3.1.4 5.9 1 6.2 1.4.2.4-.6 1.8-1.8 3.2-1.2 1.3-5 5.8-8.3 9.9-32.5 40.2-57.2 85.7-74 136.5-3.4 10.4-6.5 20.1-6.8 21.5-.3 1.4-1.7 7-3.1 12.5-3 11.6-2.7 10.3-5.8 26.5-1.4 6.9-2.8 14.7-3.2 17.5-1.2 9.4-1.5 12-2 15-.2 1.6-.7 5.9-1.1 9.5-.3 3.6-.8 7.6-1 9-.8 4.9-1.8 33.7-1.8 51.5.1 16.8 1.2 45.3 1.9 46.5.1.3.5 4.8.9 10.1s.9 10.7 1.1 12c.2 1.3.6 4.6.9 7.4.4 2.7.8 6.1 1.1 7.5.2 1.4.7 4.6 1 7.2.2 2.6.7 5.8.9 7 .3 1.3.8 3.9 1 5.8 4.5 31.3 18.7 88.1 32.6 129.5 3.3 9.9 6 18.1 6 18.3 0 .1-1.5-1.4-3.2-3.5-23.9-27.7-58.7-63.1-82.3-83.8-4.4-3.9-8.2-7.3-8.5-7.6-2.2-2.4-27.5-22.7-40.6-32.4-16.9-12.6-17.6-13.1-24.1-17.3-2.2-1.5-6.7-4.5-9.9-6.6-19.9-13.2-60.6-35.5-78.9-43.3-23.9-10.1-24.1-10.1-45.5-17.5-12.3-4.1-38.4-11.5-47-13.2-1.4-.3-7-1.4-12.5-2.5-12.4-2.4-16.2-3-36.5-5.6-3.6-.5-13.3-1.3-23-2-6.8-.5-43.1-.6-48.5-.1-2.2.2-8.3.7-13.5 1-5.2.4-10.8.9-12.5 1.1-1.6.3-4.6.7-6.5.9-8.7 1.1-13.9 1.9-19.8 3.1l-6.4 1.3.7-2.7c.4-1.4 3.1-8.4 6.1-15.4 45.8-107.7 136.3-202 250.8-261.2 32.5-16.8 70.6-32.1 102.1-41 3.3-1 8-2.3 10.5-3.1 4.3-1.3 27.4-6.9 32.2-7.8 1.3-.2 5-.9 8.3-1.5 3.3-.6 6.9-1.3 8-1.5 1.1-.2 4-.7 6.5-1.1 2.5-.4 5.2-.9 6.1-1 .9-.2 4-.6 6.9-1 2.9-.4 6-.8 6.9-1 .9-.1 5.4-.6 10.1-1 4.7-.4 9.4-.9 10.5-1.1 1.1-.2 10.1-.7 20-1 9.9-.4 18.1-.7 18.2-.8.2-.1 8.8.1 27.3.8zm981 0c7.4.4 14.9.8 16.5 1 1.7.2 6.2.7 10 1.1 3.9.4 8.6.9 10.5 1.1 8.9.9 28 4.1 46.7 7.8 10.5 2.1 39.2 9.9 54.3 14.8 84.4 27.4 164.6 76 226.5 137.4 17 16.8 24 24.3 36.6 39.4 34 40.8 61.4 86.6 79.8 133.6l2 5.2-3.7-.9c-2-.4-5.7-1-8.2-1.4-2.5-.3-5.6-.8-7-1-4.2-.7-16-2.2-24.5-3-15.7-1.5-48.5-2-64.5-1-9.8.6-29.4 2.5-35 3.5-3 .5-7.5 1.2-10 1.5-2.5.4-9 1.5-14.5 2.6s-11.1 2.3-12.5 2.5c-1.4.3-4.3 1-6.5 1.6-2.2.5-4.9 1.2-6 1.5-1.1.2-2.4.5-3 .7-8.1 2.2-11.7 3.3-21.5 6.3-11.3 3.4-35.6 12.1-41.6 14.8-1.6.8-6.6 2.9-11 4.8-17.7 7.6-39 18.6-62.3 32.2-26.9 15.7-64.8 43.3-92.6 67.4-32.8 28.4-67.8 63.8-94.7 95.6-.4.5.8-3.8 2.8-9.5 1.9-5.8 3.7-11.2 3.9-12 .3-.8 2.1-6.7 4.1-13 9.5-30.2 20.9-75.3 23.8-94.1.3-2 .8-4.2 1-5 .3-.8.7-3.2 1-5.4.3-2.2 1-6.9 1.6-10.5 2.5-15.1 2.7-16.2 3.5-24 .4-3.6.9-7.4 1.1-8.5.2-1.1.6-5.1.9-9 .3-3.8.7-8.6 1-10.5 2.5-18.8 2.5-90.3 0-102.5-.2-1.1-.7-5.2-1-9-.7-7.3-.9-9-2-16.5-1-7.2-1.5-10.3-2-13-.3-1.4-.7-4.1-1-6-1.1-6.6-4.7-23.5-6.6-31-1.1-4.1-2.2-8.5-2.4-9.6-1.2-5.6-9.1-29.8-13.6-41.6-17.8-47.1-41.4-87.8-72-124.5-3.8-4.5-6.6-8.4-6.1-8.7.4-.2 3.9-.7 7.7-1.1 3.9-.4 7.2-.9 7.5-1 .3-.2 3.9-.6 8-1s8.9-.9 10.5-1.1c1.7-.2 10-.6 18.5-1s15.6-.7 15.7-.8c.3-.2 16.9.2 30.3.8zm566.8 409.7c33 14.6 67.9 35.5 97.7 58.7 6.1 4.8 12.1 9.6 13.5 10.8 1.4 1.2 7 6.1 12.5 10.9 5.5 4.7 17.4 16.2 26.5 25.4 67.5 68.4 118.6 156.1 145.5 249.6 4.2 14.7 10.3 40.8 12.5 53 .5 3.3 1.2 7 1.5 8.3 1.9 10 4.9 37 6.1 54.2.7 10.7.7 45.1 0 55-.8 10.7-1.7 22.3-2.1 25-.5 3.3-1.7 13-2.1 15.5-.1 1.1-.3 2.6-.3 3.4-.1.8-2.2-.5-5.3-3.1-34.1-28.9-78.9-55.4-120.6-71.4-6.7-2.6-28.4-10.2-31.2-10.9-.8-.2-4-1.1-7-2-7.2-2.1-7-2-18.5-4.9-5.5-1.4-11.1-2.7-12.5-3-1.4-.3-6.1-1.2-10.5-2.1-15.5-3.1-34.2-5.8-48-7.1-3.8-.3-8.3-.8-10-1-16.8-2-79.1-2-93.9.1-1.7.2-6.5.7-10.6 1-8.6.6-13.4 1.2-24 2.6-4.1.6-9.1 1.3-11 1.5-3.5.5-16.2 2.4-19 2.9-45.6 8.4-83.5 18-124 31.5-9.6 3.2-17.6 5.7-17.8 5.6-.1-.2 3-3.1 7-6.6 4-3.4 11.1-9.7 15.8-13.9 9.6-8.7 49.8-48.5 58-57.6 59.1-65.3 101.5-133 126.3-201.5 4-11.2 11.2-33.3 12.2-37.8.2-.9 1.8-7.3 3.4-14.2 3.3-13.8 3.3-13.8 6.1-29.9 1.9-10.8 2.3-13.7 3.5-24.1.3-2.5.7-6.3.9-8.5 1-8.6 1.9-27.6 1.9-40 0-12.4-1-38.4-1.7-42.2-.2-1-.7-5-1-8.8-.8-7.6-.8-7.3-3.1-21.8-.8-5.3-1.6-10.1-1.6-10.5-.1-.4-.1-1 0-1.4.1-1 9.7 2.6 24.9 9.3zM511 574.7c-.5 2.1-1.2 5.8-1.5 8.3-.3 2.5-.8 5.4-1 6.5-.1 1.1-.6 4.5-1 7.5s-.9 6.6-1.1 8c-1.9 12.1-2.6 64.6-1.1 83.5 1.7 20.9 5 42.1 10.4 66 .2 1.1.6 3 .9 4.3 2.6 12.8 17.4 57.5 22.9 69.6 1.4 3 2.5 5.7 2.5 6 0 1 8.4 18.7 16.2 34.1 8.1 16.1 28.3 50.7 29.9 51.3.5.2.9.8.9 1.3 0 .9 2.2 4.3 12.4 18.7 1.7 2.4 3.8 5.4 4.6 6.6 10.3 14.9 34.8 44.8 53.3 65.1 12 13.1 39.7 40.6 52.1 52 5.5 4.9 10.4 9.5 11 10 .6.6 4.8 4.3 9.4 8.3 4.5 3.9 8.1 7.2 7.9 7.2-.2 0-5.7-1.8-12.2-4-20.9-7.1-60.3-18.6-75.5-22.1-2.5-.6-5.2-1.2-6-1.4-23.1-5.3-52.3-10.9-68-13-2.5-.3-5.6-.8-7-1-1.4-.2-5-.6-8-1-22.7-2.6-25-2.8-50-4.1-21.7-1.1-59.7-.5-72.5 1-1.6.2-6.4.7-10.5 1-4.1.4-8.6.9-10 1.1-1.4.3-4.2.7-6.4 1-9.5 1.1-16.4 2.2-25.6 4-4.1.8-8.8 1.7-10.5 2-1.6.2-9.3 2.1-17 4-7.7 1.9-14.9 3.7-16 4-1.1.3-8.2 2.5-15.7 4.9-51.7 16.8-101.6 43.7-142 76.7-5.3 4.3-9.9 7.9-10.2 7.9-.7 0-2.2-9.3-3.2-19.5-.3-3.3-.7-7.1-1-8.5-2.4-13.7-2.4-78.4 0-92 .3-1.4.7-5.2 1-8.5.6-6.4 1.3-11.9 2.1-17.3.3-1.7.7-4.9 1-7 .3-2 .8-4.8 1.1-6.2.3-1.4.8-3.6 1-5 .5-3 2.3-12.4 3-16 .3-1.4 1-4.3 1.5-6.5s1.2-5.1 1.5-6.5c2-9.7 12.7-45.5 17-57 7.4-19.8 9-23.8 12.2-31 15.5-35.6 30.2-63.2 49.9-93.4 12.1-18.5 31.2-44.2 41.8-56.2.6-.7 3.3-3.8 6-7 14.9-17.4 39.1-41.6 55.5-55.4 3.6-3 7-6 7.6-6.5 13.5-12 48.3-36.4 69.4-48.6 20.3-11.7 65-32.6 67.1-31.3.4.2.3 2.1-.1 4.1zm2486.6 676.8c41.3 57.1 69.9 123.8 84.9 198 2.5 12.5 5 26.7 6 34.5.3 2.5.8 5.6 1 7 .5 2.9 1.1 8.6 2.1 18.5.3 3.8.8 8.3 1 10 1.6 13.2 2.1 54.4 1 76.3-1 21.4-1.4 25.5-5.2 54.7-.5 4.2-3.1 20.2-4 24.5-.3 1.4-.7 3.6-1 5-.2 1.4-1.2 5.8-2 9.7-.9 4-1.6 7.6-1.6 8-.1.6-5.5 21.1-8.2 30.8-4.9 17.9-13.4 41.9-21.5 60.7-16.9 39.4-36.8 73.4-61.9 105.7l-6.5 8.4-3.4-9.4c-15.2-42.1-39.4-85.1-67.7-120.2-13.9-17.4-20.8-25-37.6-41.7-21.8-21.5-30.2-28.9-50.7-44.3-10.5-7.9-34.9-24.7-35.9-24.7-.3 0-2.4-1.3-4.7-2.8-10.7-7.3-45.7-26.1-66.2-35.4-40.8-18.7-104.2-39.6-149-49.3-1.1-.2-10.2-2.1-20.2-4.2-16.5-3.5-21.5-4.9-18-5 .6 0 2.6-.3 4.2-.7 1.7-.3 5.3-1 8-1.5 47.2-9.1 108.2-27 147-43 1.1-.5 4-1.7 6.5-2.7 4.5-1.7 9.6-4 24-10.4 10.9-4.9 38-18.8 49.1-25.3 18.3-10.6 48.5-30.5 57.3-37.8.6-.5 5.4-4.3 10.6-8.5 35-27.9 66.4-61.6 92.4-99.1 16.7-24.2 36.3-61.6 47.7-91l6.2-16.1 4.2 5.1c2.3 2.9 7.8 10.1 12.1 16.2zM162 1250.1c6.5 16.7 20.1 45.2 26.8 56.2 2.3 3.7 4.2 7 4.2 7.2 0 .6 13.5 21.1 18.4 28 6.2 8.7 6.9 9.7 16.1 21 13.2 16.5 19.5 23.4 35 39 64.4 64.7 150.9 113.1 257.5 144 17.2 5 39.1 10.8 45 11.9 1.4.2 4.8 1 7.5 1.6 2.8.6 5.7 1.3 6.5 1.5.8.2 3.5.8 6 1.4 2.5.5 6.1 1.3 8 1.6 1.9.4 4 .8 4.5.9 3.4.9 11.2 2 12 1.7.7-.2.7.1 0 .7-.5.5-6.2 1.9-12.5 3.1-14.8 2.9-15 2.9-22.9 4.7-3.6.9-7.7 1.8-9.1 2.1-12.3 2.2-56.5 14.8-79.6 22.7-42 14.3-77.2 29.9-114.9 51.1-12.5 7-46.1 28.5-47.5 30.5-.3.3-2.5 2-5 3.7-13.4 9.1-35.1 27.6-52.6 44.8-47.1 46.4-80.6 96.3-103.9 155-.4 1.1-.9 2.4-1.1 3-2 6.6-5.9 15.4-6.4 14.8-.4-.4-4.1-5.1-8.1-10.3-37.3-48-65.5-105.7-83.4-170.6-3.4-12.2-9.2-37.6-10-43.6-.2-1.5-.6-3.5-.9-4.5-.3-1-.7-3.6-1.1-5.8-.3-2.2-1.2-8.1-1.9-13-.8-5-1.9-14-2.6-20-.6-6.1-1.3-12.4-1.5-14-2.6-17.7-2.6-87-.1-106.5.2-1.4.7-6 1.1-10.3.3-4.3.8-8.8 1-10 .2-1.2.9-5.8 1.5-10.2.9-7.3 4.2-26.5 5.4-32.5.3-1.4.8-3.9 1.2-5.5 1.3-6.6 7.7-32.4 9.6-38.7 1.1-3.7 2-7.1 2-7.5.1-1.7 10.3-30.6 15.5-43.8 10.7-27.2 29.1-62.7 44.6-86 6.8-10.1 17.6-25.4 19.2-27.1.6-.6 2.8-3.4 5-6.3 3.3-4.3 4.1-4.9 4.7-3.4.4 1 3.4 8.8 6.8 17.4z"/><path d="M1579.5 629.2c-3.2 1.1-9.1 5.2-11.3 7.8-.7.8-2.4 3.8-3.8 6.6-2.5 5.3-2.9 8.7-3.9 31.4-.3 6.9-.7 13.6-.9 15-.3 1.4-.7 5-1 8-.4 3-1.3 9.1-2.1 13.5s-1.7 9.1-1.9 10.5c-4.6 25.8-17.4 67.8-31.1 102.5-20.7 52.5-55.6 122.1-93.5 187-1 1.6-3.9 6.6-6.4 11-2.6 4.4-5.1 8.7-5.6 9.5-.6.8-5.5 8.9-10.9 18-19.8 32.8-24.5 40.5-25.2 41-.3.3-1.2 1.6-1.9 3s-7 11.5-14 22.5c-16.7 26.4-28 44-49.5 77-6.8 10.5-37.7 57.3-80.6 122-53.9 81.2-69.5 105.2-93.4 143-8.7 13.7-17.3 27.2-19 30-14.1 21.7-64.9 107.1-68.8 115.5-.4.8-1.6 2.9-2.6 4.6-1 1.7-3.5 6-5.4 9.5-1.9 3.6-4.8 8.9-6.5 11.9-23.6 42.2-52.7 104.4-69.9 149-14.1 36.7-29.2 89.6-31.9 112-.2 1.9-.6 4.6-.9 6-.9 4.7-1.5 9-2 13.2-.2 2.4-.7 7.9-1.2 12.3-1.4 14.8-.6 71.1 1.2 83.5.2 1.4.7 6.1 1.1 10.5.3 4.4.8 8.7.9 9.6.2.9.6 4 1 7 .3 3 .8 6.5 1 7.9.2 1.4.6 4.3 1 6.5.3 2.3.7 5 .9 6 .2 1.1.7 4 1.1 6.5 2.3 15.4 10 48.3 16.6 71.1 6.5 22.7 19.7 59.2 28.6 78.9 28.1 62.2 65.5 120 110.6 170.5 9.4 10.6 38.9 40 50.2 50.1 34.7 31.1 76.8 61.1 118 84.1 9.9 5.5 40.5 20.8 48.5 24.3 4.1 1.8 9.3 4 11.5 5 20.1 9 73.9 27.7 87.7 30.4 1.3.2 6.6 1.6 11.8 2.9 8.4 2.2 29.2 6.7 37.5 8.2 16.3 2.8 21.1 3.6 24.8 4 2.3.3 5.1.6 6.2.9 1.1.2 4.7.7 8 1 3.3.4 7.4.9 9 1.1 26.1 3.3 66.5 4.5 99 3.1 16.5-.7 19-.9 31-2 3.9-.4 9.5-.9 12.5-1.2 4.9-.4 29.4-3.8 34.5-4.8 1.1-.2 4.3-.7 7-1.1 2.8-.5 5.2-.9 5.5-1l11-2.2c5.7-1 29-6.4 36-8.3 4.1-1.2 8.4-2.3 9.6-2.5 1.1-.3 5-1.4 8.5-2.6 3.5-1.1 7.2-2.2 8.2-2.4 3-.7 28.4-9.4 39.7-13.7 41.7-15.8 84.3-37.5 122.6-62.4 9.2-5.9 31-21.1 33.1-22.9.6-.5 5.3-4.2 10.3-8 35-26.5 72.6-62.9 103.5-100 13-15.6 37.5-48.9 45-61.2 29.3-47.8 45.1-78.9 61-120.3 3.2-8.1 12.8-36.3 14.1-41 .2-.8 2.7-9.6 5.4-19.5 5.1-18.1 5.7-20.5 6.6-26 .3-1.7.9-4.4 1.4-6 .4-1.7 1.1-4.6 1.4-6.5.7-3.8 1-5.9 2.6-13.5.5-2.8 1.2-6.6 1.5-8.5.3-1.9.7-4.6 1-6 .2-1.4.7-4.5 1-7 .4-2.5.8-5.6 1-7 .2-1.4.6-5 1-8s.8-6.6 1-8c.3-2.3.7-5.7 2-21 2.4-26.9 2.4-72.6 0-87.2-.2-1.3-.6-5-.9-8.3-.4-3.3-.8-7.1-1-8.5-.3-1.4-1-6.1-1.6-10.5-.7-4.4-1.4-8.9-1.6-10-.2-1.1-.8-4.5-1.4-7.5-6-34.9-18.9-85.2-34-133-3.4-10.7-6.8-21.7-7.6-24.3-3.2-10.4-21.7-62.5-30.4-85.7-28.1-75-66.9-167.1-102.1-242.8-2.2-4.6-3.9-8.5-3.9-8.7 0-.1-3.1-6.9-7-14.9-3.8-8.1-7-14.9-7-15 0-.2-3.9-8.4-8.6-18.2-4.7-9.9-10.5-22-12.9-26.9-16.6-35.1-68.9-138.5-90.8-179.5-7.5-14.2-11.5-21.5-15.2-28.5-2.1-3.9-5.2-9.7-7-13-4.1-7.8-10.2-19-13-24-1.3-2.2-3.6-6.5-5.3-9.5-1.6-3-4.2-7.8-5.7-10.5-15.6-28.1-25.1-45.1-38.3-68-8.5-14.9-16.4-28.6-17.5-30.5-1-1.9-2.3-4-2.7-4.5-.4-.6-1.9-3-3.2-5.5-1.4-2.5-6-10.4-10.3-17.5-4.3-7.2-8.5-14.4-9.5-16-6.5-11.3-33.1-54.2-49.8-80.5-10.5-16.5-44.1-67.1-45.2-68-.3-.3-3-4.1-6-8.5s-5.8-8.5-6.2-9c-.5-.6-5.8-7.8-12-16-10.1-13.7-23.8-31.4-26.3-34.1-.5-.6-3.5-4-6.5-7.5-16-18.7-32.9-34.1-42.5-38.5-5.4-2.5-11.9-3-17-1.2zM1613 699c26.3 32.6 63.7 88.2 108.3 161 6.6 10.7 12.8 20.9 13.8 22.6.9 1.8 4 6.9 6.8 11.4s5.1 8.3 5.1 8.5c0 .2 3.8 6.7 8.5 14.5s8.5 14.3 8.5 14.5c0 .3 1.6 2.9 3.5 5.9 1.9 3 3.5 5.8 3.5 6.1 0 .4.8 1.9 1.9 3.3 1 1.5 3.2 5.2 4.8 8.2 1.7 3 5.3 9.3 8 14 2.8 4.7 6.1 10.5 7.5 13 1.4 2.5 8.4 14.8 15.5 27.5 14.7 26.1 33.4 59.9 40.1 72.5 2.4 4.7 6.4 11.9 8.7 16 5 9 10.7 19.6 20.5 38.5 4 7.7 7.6 14.4 8 15 .4.5 4.8 8.9 9.8 18.5 5 9.6 13.8 26.7 19.7 38 10.7 20.7 58.1 115.8 62.8 126 1.4 3 5.6 12 9.5 20 3.8 8 8.3 17.4 10 21 1.6 3.6 5.8 12.3 9.1 19.3 3.4 7.1 6.1 13 6.1 13.2 0 .2 2 4.6 4.4 9.7 7.4 15.7 11.6 24.9 11.6 25.2 0 .2 2 4.7 4.5 10s4.5 10 4.5 10.4c0 .4.7 2 1.6 3.7.9 1.6 6.1 13.3 11.5 26 5.5 12.6 10.6 24.5 11.4 26.2.8 1.8 2.1 4.8 2.9 6.5.7 1.8 2.3 5.4 3.5 8 1.1 2.6 2.1 5 2.1 5.3 0 .3 1 2.7 2.1 5.3 2.8 6.2 3.6 8 10.9 26.2 3.4 8.5 7 17.3 8 19.5.9 2.2 4.8 11.9 8.5 21.5 3.6 9.6 7.1 18.4 7.6 19.5 4.8 10.6 34.5 95.5 41.5 118.5 12.4 41 11.6 38.2 19.4 68.5 5.9 22.9 12.4 53.5 14.5 68.5.2 1.4.6 3.8.9 5.5.9 5.2 2.5 18.7 3.2 26 .3 3.8.8 8.6 1 10.5.5 3.7.4 45.8-.1 54.5-.5 9.1-1.5 22-2 25.5-.2 1.9-.7 6.5-1 10.2-.3 3.7-.8 7.6-1 8.6-.2 1.1-.6 4.3-1 7.3-2.2 17.9-11.9 63.6-17.2 81.4-16.5 55-37 101.7-64.6 147-5.9 9.7-23 35.5-26.9 40.5-1.1 1.4-4 5.2-6.5 8.5-18.1 24.1-34.5 42.8-55.7 64-16.6 16.6-23.9 23.4-36.1 33.5-5 4.1-9.2 7.7-9.5 8-1.3 1.5-24 18.7-33.2 25.2-43.9 31.1-93.6 57.2-143.8 75.5-5.2 1.9-10.2 3.6-11 3.8-.8.2-4.2 1.3-7.5 2.5-12.2 4.2-47.7 14-56.5 15.5-1.9.3-4.3.8-5.2 1.1-.9.3-2.7.7-4 .9-10.2 2.1-18.9 3.7-21.8 4.1-1.9.3-5.7.9-8.5 1.4-8.5 1.6-30.2 4-48.5 5.5-20.1 1.5-54.6 2-72 1.1-20.1-1.2-35.9-2.5-48-4.1-1.9-.3-5.5-.7-8-1-2.5-.3-5.2-.8-6-1-.8-.2-3.5-.7-6-1-2.5-.3-5.8-.7-7.5-1-1.6-.3-4.1-.8-5.4-1-1.4-.2-4.7-.9-7.5-1.4-2.8-.6-6.2-1.2-7.6-1.5-5.1-.8-36.4-8.7-46.8-11.7-68-19.7-131-50.8-189.7-93.7-10.4-7.6-31.1-23.8-33.5-26.2-.3-.3-4.3-3.9-9-8-13-11.4-29.2-27.2-46.6-45.6-20.7-21.8-58.5-72.4-71.9-96.1-.5-1-4.1-7.2-7.9-13.8-8.1-14-21.2-40.3-28.1-56-2.6-6.1-5.3-12.4-6.1-14-5.1-11.9-21.2-59.2-22.9-67.5-.2-.8-1.9-7.8-3.8-15.5-3.2-12.6-6.7-29-8.2-38.5-.3-1.9-.8-4.2-1-5-.2-.8-.6-3.5-.9-6-.3-2.5-.8-5.4-1-6.5-.2-1.1-.7-4.5-1-7.6-.4-3.1-.8-6.5-1-7.5-.2-1.1-.7-5.7-1.1-10.4-.4-4.7-.9-9.3-1-10.2-1.7-8.7-2.5-63.7-1.2-76.1 1.9-17 1.8-16.8 3.7-27.7.5-3 1.2-7 1.5-8.7.6-3.5 2.5-12.3 5.2-23.3 7.3-30.8 25.1-81 42.1-118.5 2.7-6.1 6.4-14.2 8.1-18 1.7-3.9 3.5-7.7 4-8.5 2-3.7 3.6-6.8 13.6-27 21-42.2 63.6-117.7 88-156 1.2-1.9 9.5-15.2 18.4-29.5 30.4-48.7 57.1-89.7 132.3-203 18.9-28.6 37.8-57.2 42-63.5 4.1-6.3 12.2-18.7 18-27.5 38.3-58.6 63.6-98.7 93.2-148 7.3-12.1 14.4-24 15.8-26.5 1.4-2.5 6.4-11.2 11.2-19.4 4.7-8.2 8.6-15 8.6-15.2 0-.2 1.5-2.9 3.4-6.1 10.8-18.4 44.3-83.7 53.3-103.8 1.7-3.9 4.5-9.9 6.1-13.5 5.7-12.3 14.5-33.5 20.4-49 5.5-14.4 16.4-45.7 17.3-49.7.2-1 1.3-5 2.5-8.8 2.4-8 7-25.8 7.6-29.5.3-1.4.9-4.1 1.4-6 .5-1.9 1.2-4.9 1.4-6.5.3-1.7.8-4 1-5.1.2-1.2.7-3.7 1-5.5.3-1.9.7-4.3 1-5.4 1.2-6.3 3.3-22.2 3.5-27.4.1-2.1.3-2.2 1.8-1 .9.8 5.1 5.7 9.3 10.9z"/><path d="M1561.5 1780.1c-.2.3-.4 42.6-.4 94v93.4l-94 .3c-88.7.2-94.1.3-94.2 2-.1 1.9 0 38.3 0 39.4.1.5 42.4.8 94.1.8 88.8 0 94 .1 94 1.7 0 1 .1 43.4.3 94.3l.2 92.5h20.8l20.7.1.1-5.1c0-2.7.1-45.2.1-94.3l.1-89.2h188.5l-.2-20.8-.1-20.7-94.1-.3-94.1-.2v-188.5h-20.8c-11.4 0-20.8.2-21 .6z"/></svg>